<svg width="304" height="58" viewBox="0 0 304 58" fill="none" xmlns="http://www.w3.org/2000/svg">
<path d="M15.5195 14.3359C15.9414 14.3359 16.1523 14.8281 16.1523 15.8125C16.1523 16.2812 16.1055 16.7383 16.0117 17.1836C16.9023 17.1836 18.1562 17.2891 19.7734 17.5C21.3906 17.6875 22.6211 17.7812 23.4648 17.7812C25.2461 17.7812 27.0859 17.3477 28.9844 16.4805C30.8828 15.5898 32.3477 14.4648 33.3789 13.1055C33.3789 12.4023 33.5078 11.5938 33.7656 10.6797C34.0234 9.76562 34.2461 9.15625 34.4336 8.85156C34.6211 8.52344 34.8438 8.26563 35.1016 8.07812C35.4766 8.07812 35.7812 8.25391 36.0156 8.60547C36.25 8.93359 36.3672 9.36719 36.3672 9.90625C36.3906 10.4453 36.0859 11.1484 35.4531 12.0156C34.8203 12.8828 34.4688 13.6328 34.3984 14.2656C34.3516 14.8984 34.1523 16.375 33.8008 18.6953C33.4727 21.0156 33.1914 22.6797 32.957 23.6875C32.7461 24.6719 32.3945 25.8789 31.9023 27.3086C31.4102 28.7148 30.7539 30.1797 29.9336 31.7031C29.1367 33.2266 28.2461 34.5625 27.2617 35.7109C26.2773 36.8594 25.1055 37.8086 23.7461 38.5586C22.3867 39.3086 20.957 39.6836 19.457 39.6836C17.3945 39.6836 15.3789 38.9805 13.4102 37.5742C11.4414 36.168 10.457 34.4922 10.457 32.5469C10.457 31.3516 10.7969 30.1914 11.4766 29.0664C12.1562 27.9414 13 27.3789 14.0078 27.3789C15.0391 27.3789 15.5547 27.6719 15.5547 28.2578C14.4297 28.2578 13.457 28.6328 12.6367 29.3828C11.8164 30.1094 11.4062 31.0938 11.4062 32.3359C11.4062 34.0469 12.2734 35.5352 14.0078 36.8008C15.7656 38.0664 17.5352 38.6992 19.3164 38.6992C22.3164 38.6992 24.918 37.2578 27.1211 34.375C31.0586 28.8203 33.0508 22.2812 33.0977 14.7578C33.0039 14.8281 32.6055 15.1328 31.9023 15.6719C31.1992 16.2109 30.5078 16.7031 29.8281 17.1484C29.1484 17.5938 28.2461 17.9805 27.1211 18.3086C26.0195 18.6367 25.1172 18.8008 24.4141 18.8008C23.7344 18.8008 23.1602 18.7891 22.6914 18.7656C22.2227 18.7422 21.4844 18.6836 20.4766 18.5898C19.4688 18.4727 18.5195 18.4141 17.6289 18.4141C16.7383 18.4141 15.9062 18.543 15.1328 18.8008V14.4062C15.2734 14.3594 15.4023 14.3359 15.5195 14.3359ZM35.418 9.76562C35.207 10.1641 35.1016 10.7148 35.1016 11.418C35.3359 11.1367 35.4531 10.8672 35.4531 10.6094C35.4531 10.3281 35.4414 10.0469 35.418 9.76562ZM48.2148 38.3828C46.9492 39.2969 45.5664 39.7539 44.0664 39.7539C43.293 39.7539 42.6602 39.5195 42.168 39.0508C41.6992 38.582 41.4062 37.9961 41.2891 37.293C41.1719 36.5664 41.0898 35.9219 41.043 35.3594C41.0195 34.7734 41.0078 34.293 41.0078 33.918C41.0078 33.5195 41.0312 33.1094 41.0781 32.6875C41.0078 32.4297 40.6797 32.3008 40.0938 32.3008C39.5312 32.3008 38.9805 32.5938 38.4414 33.1797C37.9023 33.7656 37.457 34.4688 37.1055 35.2891C36.7773 36.0859 36.4492 36.8828 36.1211 37.6797C35.8164 38.4766 35.5234 39.0742 35.2422 39.4727C34.9609 39.8711 34.7266 40.0703 34.5391 40.0703C34.3516 40.0703 34.2109 40.0469 34.1172 40C34.0938 39.8594 34.082 39.6953 34.082 39.5078C34.082 38.3359 34.4922 35.8164 35.3125 31.9492C36.1328 28.082 36.9414 24.7656 37.7383 22C37.7852 21.8359 37.9141 21.4844 38.125 20.9453C38.3594 20.3828 38.6055 19.9844 38.8633 19.75C39.1211 19.4922 39.3906 19.3633 39.6719 19.3633C39.9531 19.3633 40.1758 19.4219 40.3398 19.5391V19.4688C40.5742 19.6328 40.7617 20.0312 40.9023 20.6641C41.043 21.2969 41.1133 21.8008 41.1133 22.1758C41.1133 24.3789 40.5391 26.3945 39.3906 28.2227C38.9219 28.9727 38.4531 29.6758 37.9844 30.332C37.5156 30.9883 37.1406 31.6094 36.8594 32.1953C36.6016 32.7812 36.4727 33.2148 36.4727 33.4961C36.4727 33.7773 36.4727 33.9531 36.4727 34.0234C37.7617 32.2188 39.1328 31.3164 40.5859 31.3164C41.1016 31.3164 41.4766 31.375 41.7109 31.4922C41.8984 31.6094 42.0156 31.7734 42.0625 31.9844C42.1094 32.1719 42.1328 32.6758 42.1328 33.4961C42.1562 34.293 42.1914 34.9844 42.2383 35.5703C42.3086 36.1328 42.4141 36.7422 42.5547 37.3984C42.6953 38.0312 42.8828 38.4414 43.1172 38.6289C43.375 38.8164 43.6094 38.9102 43.8203 38.9102C44.0312 38.9102 44.2539 38.8516 44.4883 38.7344C46.5508 37.7266 47.9102 37.2227 48.5664 37.2227C48.8711 37.2227 49.0234 37.3164 49.0234 37.5039C49.0234 37.6914 48.7539 37.9844 48.2148 38.3828ZM38.7227 22.4219C37.8555 25.7734 37.4102 27.6836 37.3867 28.1523C37.3867 28.5977 37.3867 28.8438 37.3867 28.8906L37.4219 29.3828C38.5234 28.9375 39.3086 26.9922 39.7773 23.5469C39.918 22.5391 39.9883 21.7188 39.9883 21.0859C39.9883 20.4531 39.8828 20.1367 39.6719 20.1367C39.4609 20.1367 39.1445 20.8984 38.7227 22.4219ZM57.1445 31.0703C56.4648 32.8047 56.125 34.4219 56.125 35.9219C56.125 38.4062 57.4727 39.6484 60.168 39.6484C60.8477 39.5547 61.3516 39.4141 61.6797 39.2266C62.0312 39.0391 62.4062 38.7227 62.8047 38.2773C63.2031 37.8086 63.5898 37.4219 63.9648 37.1172H64.1406C64.0234 38.4297 63.5664 39.3203 62.7695 39.7891C61.9961 40.2344 60.9297 40.457 59.5703 40.457C56.6406 40.457 55.0586 39.2266 54.8242 36.7656C54.707 37.375 54.168 38.0898 53.207 38.9102C52.2695 39.707 51.4258 40.1055 50.6758 40.1055C50.6289 40.1055 50.5703 40.1055 50.5 40.1055C49.0469 39.707 48.3203 38.8398 48.3203 37.5039C48.3203 35.7695 49.2227 34.082 51.0273 32.4414C52.4336 31.1523 53.8047 30.5078 55.1406 30.5078C55.8906 30.5078 56.5586 30.6953 57.1445 31.0703ZM49.4102 37.3281C49.4102 37.7031 49.4219 38.0078 49.4453 38.2422C49.4922 38.4531 49.6094 38.6523 49.7969 38.8398C50.0078 39.0273 50.3008 39.1211 50.6758 39.1211C51.707 39.0742 52.7383 38.2539 53.7695 36.6602C54.8242 35.043 55.3867 33.6602 55.457 32.5117C55.082 32.043 54.5664 31.8086 53.9102 31.8086C53.0664 31.8086 52.1875 32.3477 51.2734 33.4258C50.3594 34.5039 49.7383 35.8047 49.4102 37.3281ZM70.4336 36.3438C70.4336 35.9219 70.4336 35.1953 70.4336 34.1641C70.457 33.1094 70.4688 32.207 70.4688 31.457C69.8125 31.5977 68.8516 32.4414 67.5859 33.9883C66.3438 35.5352 65.6641 36.3438 65.5469 36.4141C64.6328 37.6328 63.918 38.5 63.4023 39.0156C63.1914 39.2969 62.8516 39.4375 62.3828 39.4375V38.6641L63.8945 33.7773C63.8945 32.0664 64.1875 30.8008 64.7734 29.9805C64.9375 29.7461 65.0898 29.6289 65.2305 29.6289C65.4648 29.6289 65.582 30.0273 65.582 30.8242C65.582 31.5977 65.4648 32.4648 65.2305 33.4258C64.9961 34.3633 64.8789 35.1484 64.8789 35.7812C65.0664 35.5938 65.6289 34.9375 66.5664 33.8125C67.5039 32.6875 68.0664 32.0312 68.2539 31.8438C68.418 31.75 68.6992 31.5156 69.0977 31.1406C69.9414 30.3906 70.6797 30.0156 71.3125 30.0156C71.6641 30.0156 71.8867 30.1328 71.9805 30.3672C72.0039 30.625 72.0156 31.0469 72.0156 31.6328C72.0156 32.1953 71.9219 33.0977 71.7344 34.3398C71.5469 35.5586 71.4414 36.5312 71.418 37.2578C71.418 38.3594 71.875 38.9102 72.7891 38.9102C73.4453 38.9102 74.0781 38.7344 74.6875 38.3828C75.2969 38.0078 75.7891 37.5977 76.1641 37.1523C76.5391 36.6836 76.9727 36.1562 77.4648 35.5703C77.957 34.9609 78.3906 34.5156 78.7656 34.2344V34.5859C78.7656 35.7109 78.0391 36.8828 76.5859 38.1016C75.1328 39.2969 73.8086 39.8945 72.6133 39.8945H71.4531C71.1016 39.6602 70.8672 39.4375 70.75 39.2266C70.6562 39.0156 70.5859 38.8633 70.5391 38.7695C70.4922 38.6758 70.457 38.5352 70.4336 38.3477C70.4336 38.1367 70.4336 37.9844 70.4336 37.8906V36.3438ZM91.668 38.3828C90.4023 39.2969 89.0195 39.7539 87.5195 39.7539C86.7461 39.7539 86.1133 39.5195 85.6211 39.0508C85.1523 38.582 84.8594 37.9961 84.7422 37.293C84.625 36.5664 84.543 35.9219 84.4961 35.3594C84.4727 34.7734 84.4609 34.293 84.4609 33.918C84.4609 33.5195 84.4844 33.1094 84.5312 32.6875C84.4609 32.4297 84.1328 32.3008 83.5469 32.3008C82.9844 32.3008 82.4336 32.5938 81.8945 33.1797C81.3555 33.7656 80.9102 34.4688 80.5586 35.2891C80.2305 36.0859 79.9023 36.8828 79.5742 37.6797C79.2695 38.4766 78.9766 39.0742 78.6953 39.4727C78.4141 39.8711 78.1797 40.0703 77.9922 40.0703C77.8047 40.0703 77.6641 40.0469 77.5703 40C77.5469 39.8594 77.5352 39.6953 77.5352 39.5078C77.5352 38.3359 77.9453 35.8164 78.7656 31.9492C79.5859 28.082 80.3945 24.7656 81.1914 22C81.2383 21.8359 81.3672 21.4844 81.5781 20.9453C81.8125 20.3828 82.0586 19.9844 82.3164 19.75C82.5742 19.4922 82.8438 19.3633 83.125 19.3633C83.4062 19.3633 83.6289 19.4219 83.793 19.5391V19.4688C84.0273 19.6328 84.2148 20.0312 84.3555 20.6641C84.4961 21.2969 84.5664 21.8008 84.5664 22.1758C84.5664 24.3789 83.9922 26.3945 82.8438 28.2227C82.375 28.9727 81.9062 29.6758 81.4375 30.332C80.9688 30.9883 80.5938 31.6094 80.3125 32.1953C80.0547 32.7812 79.9258 33.2148 79.9258 33.4961C79.9258 33.7773 79.9258 33.9531 79.9258 34.0234C81.2148 32.2188 82.5859 31.3164 84.0391 31.3164C84.5547 31.3164 84.9297 31.375 85.1641 31.4922C85.3516 31.6094 85.4688 31.7734 85.5156 31.9844C85.5625 32.1719 85.5859 32.6758 85.5859 33.4961C85.6094 34.293 85.6445 34.9844 85.6914 35.5703C85.7617 36.1328 85.8672 36.7422 86.0078 37.3984C86.1484 38.0312 86.3359 38.4414 86.5703 38.6289C86.8281 38.8164 87.0625 38.9102 87.2734 38.9102C87.4844 38.9102 87.707 38.8516 87.9414 38.7344C90.0039 37.7266 91.3633 37.2227 92.0195 37.2227C92.3242 37.2227 92.4766 37.3164 92.4766 37.5039C92.4766 37.6914 92.207 37.9844 91.668 38.3828ZM82.1758 22.4219C81.3086 25.7734 80.8633 27.6836 80.8398 28.1523C80.8398 28.5977 80.8398 28.8438 80.8398 28.8906L80.875 29.3828C81.9766 28.9375 82.7617 26.9922 83.2305 23.5469C83.3711 22.5391 83.4414 21.7188 83.4414 21.0859C83.4414 20.4531 83.3359 20.1367 83.125 20.1367C82.9141 20.1367 82.5977 20.8984 82.1758 22.4219ZM99.7891 36.3438C99.7891 35.9219 99.7891 35.1953 99.7891 34.1641C99.8125 33.1094 99.8242 32.207 99.8242 31.457C99.168 31.5977 98.207 32.4414 96.9414 33.9883C95.6992 35.5352 95.0195 36.3438 94.9023 36.4141C93.9883 37.6328 93.2734 38.5 92.7578 39.0156C92.5469 39.2969 92.207 39.4375 91.7383 39.4375V38.6641L93.25 33.7773C93.25 32.0664 93.543 30.8008 94.1289 29.9805C94.293 29.7461 94.4453 29.6289 94.5859 29.6289C94.8203 29.6289 94.9375 30.0273 94.9375 30.8242C94.9375 31.5977 94.8203 32.4648 94.5859 33.4258C94.3516 34.3633 94.2344 35.1484 94.2344 35.7812C94.4219 35.5938 94.9844 34.9375 95.9219 33.8125C96.8594 32.6875 97.4219 32.0312 97.6094 31.8438C97.7734 31.75 98.0547 31.5156 98.4531 31.1406C99.2969 30.3906 100.035 30.0156 100.668 30.0156C101.02 30.0156 101.242 30.1328 101.336 30.3672C101.359 30.625 101.371 31.0469 101.371 31.6328C101.371 32.1953 101.277 33.0977 101.09 34.3398C100.902 35.5586 100.797 36.5312 100.773 37.2578C100.773 38.3594 101.23 38.9102 102.145 38.9102C102.801 38.9102 103.434 38.7344 104.043 38.3828C104.652 38.0078 105.145 37.5977 105.52 37.1523C105.895 36.6836 106.328 36.1562 106.82 35.5703C107.312 34.9609 107.746 34.5156 108.121 34.2344V34.5859C108.121 35.7109 107.395 36.8828 105.941 38.1016C104.488 39.2969 103.164 39.8945 101.969 39.8945H100.809C100.457 39.6602 100.223 39.4375 100.105 39.2266C100.012 39.0156 99.9414 38.8633 99.8945 38.7695C99.8477 38.6758 99.8125 38.5352 99.7891 38.3477C99.7891 38.1367 99.7891 37.9844 99.7891 37.8906V36.3438ZM121.023 38.3828C119.758 39.2969 118.375 39.7539 116.875 39.7539C116.102 39.7539 115.469 39.5195 114.977 39.0508C114.508 38.582 114.215 37.9961 114.098 37.293C113.98 36.5664 113.898 35.9219 113.852 35.3594C113.828 34.7734 113.816 34.293 113.816 33.918C113.816 33.5195 113.84 33.1094 113.887 32.6875C113.816 32.4297 113.488 32.3008 112.902 32.3008C112.34 32.3008 111.789 32.5938 111.25 33.1797C110.711 33.7656 110.266 34.4688 109.914 35.2891C109.586 36.0859 109.258 36.8828 108.93 37.6797C108.625 38.4766 108.332 39.0742 108.051 39.4727C107.77 39.8711 107.535 40.0703 107.348 40.0703C107.16 40.0703 107.02 40.0469 106.926 40C106.902 39.8594 106.891 39.6953 106.891 39.5078C106.891 38.3359 107.301 35.8164 108.121 31.9492C108.941 28.082 109.75 24.7656 110.547 22C110.594 21.8359 110.723 21.4844 110.934 20.9453C111.168 20.3828 111.414 19.9844 111.672 19.75C111.93 19.4922 112.199 19.3633 112.48 19.3633C112.762 19.3633 112.984 19.4219 113.148 19.5391V19.4688C113.383 19.6328 113.57 20.0312 113.711 20.6641C113.852 21.2969 113.922 21.8008 113.922 22.1758C113.922 24.3789 113.348 26.3945 112.199 28.2227C111.73 28.9727 111.262 29.6758 110.793 30.332C110.324 30.9883 109.949 31.6094 109.668 32.1953C109.41 32.7812 109.281 33.2148 109.281 33.4961C109.281 33.7773 109.281 33.9531 109.281 34.0234C110.57 32.2188 111.941 31.3164 113.395 31.3164C113.91 31.3164 114.285 31.375 114.52 31.4922C114.707 31.6094 114.824 31.7734 114.871 31.9844C114.918 32.1719 114.941 32.6758 114.941 33.4961C114.965 34.293 115 34.9844 115.047 35.5703C115.117 36.1328 115.223 36.7422 115.363 37.3984C115.504 38.0312 115.691 38.4414 115.926 38.6289C116.184 38.8164 116.418 38.9102 116.629 38.9102C116.84 38.9102 117.062 38.8516 117.297 38.7344C119.359 37.7266 120.719 37.2227 121.375 37.2227C121.68 37.2227 121.832 37.3164 121.832 37.5039C121.832 37.6914 121.562 37.9844 121.023 38.3828ZM111.531 22.4219C110.664 25.7734 110.219 27.6836 110.195 28.1523C110.195 28.5977 110.195 28.8438 110.195 28.8906L110.23 29.3828C111.332 28.9375 112.117 26.9922 112.586 23.5469C112.727 22.5391 112.797 21.7188 112.797 21.0859C112.797 20.4531 112.691 20.1367 112.48 20.1367C112.27 20.1367 111.953 20.8984 111.531 22.4219ZM129.953 31.0703C129.273 32.8047 128.934 34.4219 128.934 35.9219C128.934 38.4062 130.281 39.6484 132.977 39.6484C133.656 39.5547 134.16 39.4141 134.488 39.2266C134.84 39.0391 135.215 38.7227 135.613 38.2773C136.012 37.8086 136.398 37.4219 136.773 37.1172H136.949C136.832 38.4297 136.375 39.3203 135.578 39.7891C134.805 40.2344 133.738 40.457 132.379 40.457C129.449 40.457 127.867 39.2266 127.633 36.7656C127.516 37.375 126.977 38.0898 126.016 38.9102C125.078 39.707 124.234 40.1055 123.484 40.1055C123.438 40.1055 123.379 40.1055 123.309 40.1055C121.855 39.707 121.129 38.8398 121.129 37.5039C121.129 35.7695 122.031 34.082 123.836 32.4414C125.242 31.1523 126.613 30.5078 127.949 30.5078C128.699 30.5078 129.367 30.6953 129.953 31.0703ZM122.219 37.3281C122.219 37.7031 122.23 38.0078 122.254 38.2422C122.301 38.4531 122.418 38.6523 122.605 38.8398C122.816 39.0273 123.109 39.1211 123.484 39.1211C124.516 39.0742 125.547 38.2539 126.578 36.6602C127.633 35.043 128.195 33.6602 128.266 32.5117C127.891 32.043 127.375 31.8086 126.719 31.8086C125.875 31.8086 124.996 32.3477 124.082 33.4258C123.168 34.5039 122.547 35.8047 122.219 37.3281ZM143.242 36.3438C143.242 35.9219 143.242 35.1953 143.242 34.1641C143.266 33.1094 143.277 32.207 143.277 31.457C142.621 31.5977 141.66 32.4414 140.395 33.9883C139.152 35.5352 138.473 36.3438 138.355 36.4141C137.441 37.6328 136.727 38.5 136.211 39.0156C136 39.2969 135.66 39.4375 135.191 39.4375V38.6641L136.703 33.7773C136.703 32.0664 136.996 30.8008 137.582 29.9805C137.746 29.7461 137.898 29.6289 138.039 29.6289C138.273 29.6289 138.391 30.0273 138.391 30.8242C138.391 31.5977 138.273 32.4648 138.039 33.4258C137.805 34.3633 137.688 35.1484 137.688 35.7812C137.875 35.5938 138.438 34.9375 139.375 33.8125C140.312 32.6875 140.875 32.0312 141.062 31.8438C141.227 31.75 141.508 31.5156 141.906 31.1406C142.75 30.3906 143.488 30.0156 144.121 30.0156C144.473 30.0156 144.695 30.1328 144.789 30.3672C144.812 30.625 144.824 31.0469 144.824 31.6328C144.824 32.1953 144.73 33.0977 144.543 34.3398C144.355 35.5586 144.25 36.5312 144.227 37.2578C144.227 38.3594 144.684 38.9102 145.598 38.9102C146.254 38.9102 146.887 38.7344 147.496 38.3828C148.105 38.0078 148.598 37.5977 148.973 37.1523C149.348 36.6836 149.781 36.1562 150.273 35.5703C150.766 34.9609 151.199 34.5156 151.574 34.2344V34.5859C151.574 35.7109 150.848 36.8828 149.395 38.1016C147.941 39.2969 146.617 39.8945 145.422 39.8945H144.262C143.91 39.6602 143.676 39.4375 143.559 39.2266C143.465 39.0156 143.395 38.8633 143.348 38.7695C143.301 38.6758 143.266 38.5352 143.242 38.3477C143.242 38.1367 143.242 37.9844 143.242 37.8906V36.3438Z" fill="#0D2F3F"/>
</svg>
