<svg width="66" height="66" viewBox="0 0 66 66" fill="none" xmlns="http://www.w3.org/2000/svg">
<g filter="url(#filter0_d_236_825)">
<rect x="10" y="6" width="46" height="46" rx="23" fill="white"/>
<path d="M44.4099 20.4633L41.0817 17.1383C40.6755 16.732 40.1317 16.5039 39.5567 16.5039C38.9817 16.5039 38.438 16.7289 38.0317 17.1383L34.4474 20.7164C34.0411 21.1227 33.813 21.6695 33.813 22.2445C33.813 22.8227 34.038 23.3633 34.4474 23.7727L37.2474 26.5758C36.6095 28.062 35.693 29.4123 34.5474 30.5539C33.4005 31.707 32.0599 32.6164 30.5724 33.2602L27.7724 30.457C27.3661 30.0508 26.8224 29.8227 26.2474 29.8227C25.9637 29.8216 25.6828 29.8772 25.4209 29.9861C25.159 30.095 24.9216 30.2551 24.7224 30.457L21.1349 34.0352C20.7286 34.4414 20.5005 34.9883 20.5005 35.5633C20.5005 36.1414 20.7255 36.682 21.1349 37.0914L24.4599 40.4164C25.1536 41.1102 26.1099 41.507 27.0911 41.507C27.2942 41.507 27.4911 41.4914 27.6911 41.457C31.8286 40.7758 35.9349 38.5727 39.2505 35.2602C42.563 31.9414 44.763 27.8352 45.4505 23.6945C45.6474 22.5195 45.2536 21.3102 44.4099 20.4633ZM43.2349 23.3227C42.6255 27.007 40.6442 30.682 37.6599 33.6664C34.6755 36.6508 31.0036 38.632 27.3192 39.2414C26.8567 39.3195 26.3817 39.1633 26.0442 38.8289L22.7786 35.5633L26.2411 32.0977L29.9849 35.8477L30.013 35.8758L30.688 35.6258C32.7346 34.8733 34.5932 33.6848 36.1348 32.1426C37.6765 30.6004 38.8643 28.7414 39.6161 26.6945L39.8661 26.0195L36.0911 22.2477L39.5536 18.782L42.8192 22.0477C43.1567 22.3852 43.313 22.8602 43.2349 23.3227Z" fill="#286F6C"/>
</g>
<defs>
<filter id="filter0_d_236_825" x="0" y="0" width="66" height="66" filterUnits="userSpaceOnUse" color-interpolation-filters="sRGB">
<feFlood flood-opacity="0" result="BackgroundImageFix"/>
<feColorMatrix in="SourceAlpha" type="matrix" values="0 0 0 0 0 0 0 0 0 0 0 0 0 0 0 0 0 0 127 0" result="hardAlpha"/>
<feOffset dy="4"/>
<feGaussianBlur stdDeviation="5"/>
<feColorMatrix type="matrix" values="0 0 0 0 0 0 0 0 0 0 0 0 0 0 0 0 0 0 0.05 0"/>
<feBlend mode="normal" in2="BackgroundImageFix" result="effect1_dropShadow_236_825"/>
<feBlend mode="normal" in="SourceGraphic" in2="effect1_dropShadow_236_825" result="shape"/>
</filter>
</defs>
</svg>
