<svg width="832" height="624" viewBox="0 0 832 624" fill="none" xmlns="http://www.w3.org/2000/svg">
<path fill-rule="evenodd" clip-rule="evenodd" d="M270.857 722.396L262.857 722.146C260.488 724.178 254.936 728.347 256.09 730.216C257.399 732.336 255.271 730.129 258.801 731.248L260.903 728.542L270.857 722.396ZM130.469 418.818L127.642 420.563L126.482 418.685L130.469 418.818ZM103.636 419.832L100.809 421.577L99.6496 419.699L103.636 419.832ZM372.252 915.203L375.078 913.458L371.706 911.747C376.241 910.924 374.099 911.752 378.777 909.889C382.576 912.683 386.67 910.934 391.922 912.15C384.315 915.167 389.306 911.542 381.676 914.585C378.324 912.121 379.846 912.8 375.083 913.467L376.243 915.345L372.252 915.203C367.188 915.896 361.222 916.429 357.692 913.828C362.608 912.2 368.944 912.538 372.252 915.203ZM17.9998 265.254L15.1734 266.999L14.0192 265.13L17.9998 265.254ZM643.72 418.272L645.414 414.632L646.573 416.51L643.72 418.272ZM144.376 38.1326L148.362 38.2658L145.536 40.0109L144.376 38.1326C137.019 42.675 139.386 42.3629 134.681 41.2775L139.054 39.4051L143.203 36.2626L144.363 38.1409L144.376 38.1326ZM529.817 294.119L532.67 292.358L533.648 294.607L529.817 294.119L522.11 297.309C519.579 295.66 518.777 296.328 515.584 296.421L510.671 301.048L511.65 302.754C518.47 299.037 513.5 300.216 518.489 301.126L515.636 302.888L518.291 303.769L513.964 306.502C511.232 308.189 511.252 307.768 509.11 308.202L508.712 304.531L495.704 308.362L490.725 313.216L485.752 314.903C486.302 317.973 485.346 318.39 483.792 321.228C472.412 323.732 475.742 323.74 466.405 321.597L460.725 325.104C457.284 324.462 459.847 323.954 455.292 325.865L454.132 323.986L458.406 321.348C454.97 320.714 457.533 320.206 452.973 322.108C450.05 319.947 445.146 321.171 440.993 321.734L436.719 324.373C440.212 325.885 439.246 324.32 439.039 328.129L432.733 330.441L435.098 334.454C426.118 339.332 428.81 333.951 418.013 338.517L422.606 339.573L418.113 342.31L418.013 338.517L411.284 337.693C404.64 341.091 384.452 347.391 379.86 346.52L377.007 348.282L381.64 349.584L374.935 351.884L377.015 348.265L373.58 348.903L372.449 347.192L381.596 343.039C376.787 341.784 374.31 341.373 367.276 345.198C363.677 342.515 362.86 344.156 358.144 343.053L353.87 345.691C347.151 344.157 343.12 346.795 335.871 345.13L333.045 346.875L330.192 348.637L326.79 349.329L323.932 351.205C318.779 354.386 322.42 351.842 321.685 353.889L315.385 356.21L311.886 360.829L317.997 357.476L321.369 359.186L327.95 354.567L328.262 358.822L331.43 356.965L331.421 360.763C336.202 358.886 333.691 359.176 337.156 359.916C345.834 354.73 368.392 347.671 372.741 350.903C366.762 353.532 370.711 351.094 365.682 355.262C358.652 352.771 361.248 353.799 352.249 355.773L349.423 357.518L340.89 362.787C335.588 366.06 335.872 361.437 325.79 366.921C330.966 370.705 332.795 364.622 338.957 369.156L336.221 371.562C332.702 373.093 334.002 371.054 334.437 374.542L342.138 371.343L345.948 371.585C346.842 368.736 345.2 369.193 349.203 366.722C353.652 363.974 356.213 367.063 364.042 365.343L367.504 361.661L370.876 363.705L369.722 361.835C374.25 359.942 371.673 360.458 375.123 361.083L370.876 363.705C375.052 364.66 390.124 364.323 396.541 360.83C402.868 362.001 405.23 358.505 412.194 357.652L414.336 354.92C425.824 353.165 474.274 329.834 482.206 331.275L476.526 334.782L473.124 335.474L468.846 338.226C466.167 338.818 446.565 343.435 449.227 347.746C450.342 349.553 455.073 346.928 458.066 346.18C457.738 349.792 456.171 346.287 458.386 349.874L458.971 350.822C460.087 352.629 459.558 352.77 459.304 354.508C453.498 355.783 456.604 356.064 451.885 355.197C449.48 358.684 448.817 360.575 443.671 364.16L444.096 367.814L445.145 369.724C446.266 371.54 446.624 371.121 448.304 371.665L447.903 374.433L454.344 372.099C459.201 375.426 461.145 372.101 466.878 373.157L471.151 370.518C476.791 371.545 472.495 370.577 478.571 369.828L482.804 367.215L484.543 370.032C479.806 371.92 481.43 371.979 478.571 369.828C475.581 373.367 480.294 370.049 474.872 373.397L472.045 375.143L463.779 377.306L462.046 374.83L455.768 377.249L459.66 380.133L457.233 382.979L464.072 381.35L459.92 383.852L457.238 382.988L454.412 384.733C447.796 382.368 449.67 383.164 441.006 385.227C438.816 385.764 427.126 387.311 426.747 387.545C424.015 389.232 424.4 389.402 423.053 391.123L419.651 391.815L416.821 393.674L413.967 395.436L407.238 394.612L403.666 397.842L398.317 398.526C403.74 401.713 399.767 396.519 405.461 400.688C411.072 398.31 419.718 397.58 423.706 398.503C414.878 402.236 418.222 398.183 409.187 403.576L409.585 407.247L413.753 404.649C417.405 405.482 416.105 404.555 418.926 406.643L409.75 410.69L410.379 411.921L418.075 408.503L419.82 411.268C425.662 408.81 425.864 408.079 430.071 408.842L425.798 411.481L426.378 412.42C432.355 408.729 436.625 407.476 440.897 407.346L431.777 411.483L432.971 413.538L426.693 415.956C431.596 417.241 429.426 415.331 432.464 419.04L437.411 414.527C444.62 412.831 444.764 410.16 451.23 411.344C457.72 407.819 460.454 407.255 464.055 409.911L461.229 411.656L462.389 413.535L467.236 411.765L470.063 410.081L472.889 408.336C481.305 406.476 481.405 407.303 488.009 406.352C492.901 405.653 499.78 401.456 505.069 400.129L509.342 397.491L516.161 395.949C515.007 400.01 517.206 398.034 512.502 399.432L513.662 401.31C508.183 403.63 504.918 403.484 500.015 404.559C503.444 407.088 512.81 404.529 518.255 402.366L517.101 400.496C525.046 398.753 531.471 397.813 537.92 399.304C545.753 395.048 545.531 396.866 551.6 396.046C553.408 393.953 553.048 393.855 556.7 391.6L562.38 388.093C559.13 384.07 562.865 385.52 557.207 386.098L558.367 387.977L555.54 389.722C554.246 386.567 554.519 385.163 558.901 382.458C561.781 380.679 565.64 382.3 567.453 383.664C563.865 386.867 565.276 384.736 564.366 388.164C570.242 385.821 571.41 386.594 574.945 389.415C567.628 392.327 572.763 388.724 565.279 392.789L567.019 395.606L560.521 400.965L558.453 399.4L559.046 401.814C549.989 407.233 555.746 402.974 547.96 406.064L552.657 406.895C551.74 408.314 550.009 409.383 550.859 410.76C552.19 412.916 571.364 409.33 577.365 406.07L580.742 407.789L585.783 403.701L589.884 400.934L592.711 399.189L597.553 397.743L597.127 400.291L599.964 401.134L599.867 405.061L609.88 401.795L612.684 397.049C617.942 398.002 617.378 396.09 622.942 397.386C633.092 391.317 636.896 393.243 646.575 387.983L655.292 388.852L648.035 393.555L638.392 397.088L634.109 399.559L625.877 402.11L621.622 404.687L618.768 406.449C612.826 407.746 608.903 408.834 603.089 409.644L604.249 411.523L597.971 413.941C604.973 419.229 598.457 411.43 604.568 415.217L597.468 419.601C601.238 424.253 602.023 420.594 603.221 422.535C604.729 424.976 596.08 430.057 597.587 432.499C598.813 434.485 598.877 433.408 601.354 435.362L596.501 437.123C598.828 438.775 603.708 439.962 606.814 441.059L608.554 443.877L611.214 444.767C610.913 448.696 609.946 447.131 613.445 448.652L616.906 444.971C616.81 448.687 615.211 445.19 617.425 448.776L619.171 451.603C611.371 454.702 610.396 449.04 604.286 446.524L601.459 448.269L594.359 452.653L592.216 455.385L587.839 457.976C583.607 458.897 580.236 460.274 576.141 461.295L572.679 464.977C571.529 459.423 574.184 462.664 571.827 457.485L568.973 459.247L567.234 456.43L566.074 454.551C560.676 455.278 555.253 456.056 549.842 456.79L543.505 462.26C539.723 460.098 544.741 460.298 537.322 461.926L538.482 463.805L534.208 466.443L531.889 462.687C527.478 464.558 528.902 463.234 525.629 465.254C522.884 466.949 523.282 467.111 521.963 468.816C518.214 469.339 516.544 468.269 513.123 470.382L507.443 473.889L511.499 473.621L508.603 475.767L509.762 477.645L502.663 482.029C505.804 484.364 506.629 483.855 511.242 483.218L510.077 481.331C515.85 480.546 512.033 482.26 518.342 478.834L517.177 476.947C521.621 475.191 519.116 475.49 522.588 476.212C527.999 473.267 528.01 473.285 530.588 476.462L536.758 476.26L534.458 479.372C531.333 478.275 527.048 476.053 522.328 478.967L515.228 483.351L506.042 487.442L504.402 484.847L498.148 487.423L501.131 489.745L495.321 489.169L498.148 487.423C492.977 486.49 495.325 488.116 490.148 487.174L484.468 490.681L483.772 485.984C478.608 488.752 477.948 488.53 473.908 489.43C474.8 485.791 475.037 487.387 474.442 483.912L482.143 480.713L480.962 478.589C486.772 476.139 489.618 474.183 493.208 476.217L498.888 472.71C500.101 472.949 500.819 474.112 502.874 472.843C508.23 469.536 505.171 470.572 510.834 466.644C507.181 465.81 508.501 466.738 505.661 464.649C494.004 469.276 481.257 465.694 469.495 472.722C476.188 477.633 472.049 469.811 477.22 475.735C470.559 478.378 473.586 475.385 469.001 478.216C465.445 480.412 468.121 481.329 469.294 481.927L469.619 488.261L464.525 489.813L468.359 490.547L473.377 494.984L477.699 492.303C481.679 495.269 479.553 493.914 485.672 492.569L489.139 488.897L494.576 490.926L489.398 495.458L490.558 497.336L496.728 497.134L500.311 493.982L505.119 492.422L505.646 497.026C513.835 498.703 517.997 493.069 523.975 497.458C530.264 494.785 532.342 496.184 535.668 494.129L539.901 491.516C535.45 489.903 538.703 489.847 533.349 490.373L533.33 486.591L530.168 488.458L530.591 485.664C539.26 484.487 537.375 488.604 545.254 484.332L551.091 484.891L553.001 487.319L561.266 484.761L565.014 481.273C567.843 480.984 562.613 483.979 568.36 480.43L572.634 477.791L573.794 479.67L569.52 482.308L570.095 483.239C575.775 479.732 578.352 480.821 584.614 478.165L588.093 483.8L589.253 485.679L596.066 484.128L595.659 486.826C603.358 482.294 601.841 484.405 608.333 481.669C607.436 485.299 607.231 483.696 607.826 487.17C614.371 483.611 615.691 483.784 620.072 484.798L627.673 481.044L633.728 475.119L638.515 473.645L642.406 476.135L636.263 482.523L632.916 483.243L630.052 485.109L620.126 491.238C625.15 492.386 624.638 490.256 627.879 494.235L622.199 497.742L625.577 499.461L635.924 494.74C638.412 494.958 637.281 496.212 641.284 493.741L642.691 492.872C646.748 490.367 645.47 491.564 648.124 492.112L653.804 488.605L654.964 490.483L659.197 487.87C664.038 491.416 666.887 488.285 674.036 486.491L678.309 483.852L681.163 482.09C688.414 480.281 690.627 476.271 695.422 479.772L687.693 486.162L688.615 487.867L682.337 490.285L683.542 492.296L686.382 490.543L688.062 497.227L684.181 499.685L685.341 501.563L691.555 498.801L690.446 497.126C696.575 494.528 696.856 494.589 701.272 495.63L694.947 501.117C697.576 503.348 697.099 501.518 697.085 504.701L702.765 501.194C706.56 502.076 709.74 501.237 714.171 500.638L717.919 497.088C723.689 496.874 724.275 494.857 730.091 494.687L725.858 497.301L727.018 499.179C722.35 502.42 722.248 503.101 719.671 506.31L716.27 507.002C713.249 510.671 717.995 507.345 712.545 510.71C710.164 512.18 706.47 512.731 704.285 513.216L702.183 515.922C697.549 516.979 702.635 514.234 697.198 517.591C695.292 518.769 695.716 519.94 695.532 521.215C703.654 516.793 703.33 519.686 711.458 515.273L711.062 518.05C716.797 517.264 716.096 518.883 722.037 516.524L725.14 518.524L726.337 520.342L728.978 518.811L732.35 520.521L735.177 518.776L742.277 514.392C748.011 510.852 742.788 513.829 745.474 513.369L752.23 508.247C751.525 510.856 753.187 510.25 749.116 512.764L739.115 519.013L741.787 520.044L735.51 522.462C737.619 522.852 739.255 522.719 741.523 522.641C735.347 526.01 736.187 524.466 730.41 526.908L731.57 528.787C727.591 529.18 724.312 528.771 721.923 526.021L729.729 522.054L726.356 520.343L722.188 520.581L718.616 523.751C713.276 524.268 714.585 525.844 708.758 529.899C711.556 533.373 711.555 533.522 714.731 530.103C719.329 533.799 722.805 531.987 729.063 534.226L728.64 537.02L732.194 538.692C736.448 537.141 733.91 537.447 737.368 538.178L752.771 531.51C754.555 535.337 754.054 534.708 751.381 538.607L754.759 540.326L754.551 544.346L751.159 543.723C755.464 549.848 755.371 544.222 760.586 547.192L750.291 550.213C747.356 553.174 752.096 549.84 746.646 553.205L740.966 556.712L742.126 558.59L737.893 561.204L739.633 564.021C745.815 560.661 744.969 562.196 750.719 559.77L745.94 558.867L754.335 556.067L753.929 558.888L757.797 555.351L766.629 553.258L768.705 551.025C775.504 550.842 774.536 548.215 778.83 551.358C783.885 549.349 790.32 548.094 793.669 549.979L797.39 546.446L802.172 544.964L805.26 546.727L802.488 551.193L799.154 549.15C796.094 552.756 800.826 549.439 795.417 552.779L789.737 556.286L783.412 561.773L787.801 565.191L792.373 563.974L792.788 567.399L786.39 569.743L785.598 578.263C791.701 579.646 796.138 576.758 800.241 577.412C806.735 578.431 804.289 580.399 813.656 579.112C814.532 582.709 813.114 581.472 815.975 582.868L814.739 587.462C819.096 588.255 816.372 589.319 819.696 585.748L825.506 586.324L825.7 589.725L830.739 590.443L826.329 593.314L829.701 595.025L823.873 601.65L826.23 602.382L823.283 604.263L826.806 607.338L819.308 610.35L816.674 609.715L813.301 613.268L814.229 615.042C822.637 610.024 820.585 613.144 828.168 609.03L830.618 611.545C831.322 614.137 830.845 612.307 833.669 614.702C829.09 615.725 828.413 615.476 822.561 618.978L819.189 617.267C810.024 620.999 806.56 622.952 797.782 624.345C789.229 625.71 783.605 630.64 779.816 625.925L773.641 626.118L757.917 631.873L759.037 633.566L763.31 630.928C768.476 634.755 773.401 630.874 779.884 632.357C785.521 629.296 787.732 628.339 791.55 629.046L787.276 631.684L790.463 633.608L792.715 630.933C796.745 630.804 799.679 631.352 803.294 632.184C798.193 634.209 794.214 634.48 790.468 633.617L781.298 637.673L775.545 637.371C778.31 641.396 778.903 639.844 782.254 642.58L789.327 638.213L790.029 642.919L785.374 644.607L784.972 647.314L779.854 651.611L775.171 653.193L773.052 656.144L770.081 657.867L764.401 661.374L760.999 662.066L755.302 665.696C760.379 665.538 760.034 664.194 764.721 665.069C759.14 668.403 751.953 670.74 747.375 671.887L740.275 676.271C743.784 669.126 741.605 677.97 741.362 671.708L745.635 669.07C741.241 668.275 740.05 669.825 733.942 672.398C732.924 675.226 730.398 675.884 726.016 678.589L723.162 680.351L717.687 681.557L723.45 677.579L723.024 673.926L720.354 673.079L713.442 677.284L714.602 679.163L710.369 681.776C706.542 684.139 706.171 683.751 702.689 685.221C705.45 686.667 706.051 684.615 702.429 687.976L701.269 686.098L697.516 689.639L691.896 693.183L691.316 692.243L698.072 687.121L694.445 685.209L698.931 682.341C695.628 682.316 695.258 682.261 692.338 681.222L687.084 685.541L680.425 686.947L682.502 684.503L681.525 682.71L671.832 686.1L674.494 687.113L670.745 690.663L669.006 687.845L671.832 686.1L669.178 685.219C674.26 682.378 674.914 682.591 678.932 681.716L679.462 679.882C672.126 678.136 660.207 678.527 649.273 684.475L646.618 683.594L643.245 687.147L642.62 683.382C633.98 685.27 627.395 684.468 617.354 689.927C613.753 689.086 597.705 690.384 593.702 692.855C593.499 692.981 591.45 695.531 591.428 695.557C596.335 696.666 594.158 694.773 597.181 698.49C590.327 701.215 585.493 697.924 578.069 702.508C577.893 702.617 575.844 705.167 575.822 705.192L572.42 705.885C575.552 708.324 576.355 707.841 580.962 707.195L583.282 710.952C590.592 710.206 587.309 714.297 596.135 709.502C593.542 707.421 593.694 708.785 592.368 706.639C591.186 704.724 594.251 703.092 596.894 701.262L598.048 703.132L600.902 701.37L602.061 703.248L596.381 706.755C601.37 707.665 596.414 708.835 603.221 705.126L604.961 707.944C611.921 705.178 611.099 708.083 616.12 710.134C615.659 713.865 616.223 720.436 610.8 723.784C608.298 725.329 607.607 723.816 606.234 722.712C603.183 727.511 603.559 723.523 605.7 728.23C603.274 731.804 604.927 730.276 601.207 733.599C601.628 735.612 602.551 739.255 599.833 740.933C599.562 741.1 588.392 740.313 587.049 740.105C583.409 739.535 579.043 736.82 576.374 734.675L570.096 737.093C566.778 734.805 561.587 734.626 556.128 736.798L553.025 734.797L547.289 738.364L546.864 734.71L552.296 734.16C548.481 731.068 545.987 732.323 540.382 733.561L541.796 739.149C537.132 741.003 538.756 741.063 535.862 738.946L531.036 740.69C528.059 744.159 532.765 740.858 527.355 744.198C525.327 745.451 517.305 743.139 514.79 742.876L516.529 745.694C511.006 747.881 513.103 747.315 509.11 746.383C501.113 751.16 474.076 755.685 469.757 752.533C462.705 755.33 463.846 750.673 453.525 754.772C449.794 750.182 448.339 751.97 443.212 750.775C447.849 748.937 445.743 749.731 450.051 749.146L452.139 743.693L456.043 749.35L467.403 742.336L466.978 738.683L470.466 737.949C467.776 735.83 469.923 736.283 465.91 736.772C461.766 731.634 463.336 735.841 456.751 734.644L451.859 739.246C446.729 740.165 443.483 740.02 437.985 742.339L434.882 740.339L431.977 742.17L430.571 743.038L427.717 744.8C422.451 743.592 418.376 745.342 414.572 742.539C409.417 744.597 406.966 743.986 403.172 743.104L399.705 746.777L386.936 751.448C385.076 751.461 372.044 751.835 369.58 752.17L369.176 758.745L375.3 755.112L376.46 756.99L363.68 764.881C360.383 762.445 359.319 764.139 358.534 762.869C356.441 759.479 363.897 760.633 362.735 753.79L359.881 755.552L355.259 748.065C355.199 748.09 336.424 752.653 334.721 753.012C327.693 754.486 322.917 752.468 317.6 750.574L316.441 748.696C315.319 746.88 315.854 746.748 316.102 745.001C308 743.134 304.576 740.492 295.012 740.22C282.921 739.878 283.653 739.945 273.49 736.312C280.047 732.894 284.665 735.774 290.329 734.995L283.95 724.664L282.791 722.786C278.555 721.25 277.658 721.582 273.632 720.658L270.805 722.403C270.375 728.03 274.143 726.236 266.604 731.483L266.629 735.273L262.664 737.807C261.691 741.163 263.299 739.108 259.55 742.324L259.688 748.75L260.783 750.644L261.943 752.522C269.356 750.885 264.385 750.668 267.956 752.701C261.598 755.23 262.342 753.955 257.957 752.389C257.403 749.828 258.046 749.356 256.477 746.816C255.588 745.376 251.762 745.502 249.884 745.698L244.804 741.101L241.25 744.481C239.514 740.55 238.697 742.191 243.264 738.123L238.689 734.524L244.285 733.786L238.151 729.569L236.886 727.792C235.77 725.986 236.299 725.844 236.566 724.098L231.348 722.181L230.266 720.217L229.106 718.339C227.218 715.28 230.905 712.237 233.307 709.259L229.934 707.549L227.307 709.072L229.047 711.89L223.774 716.208L216.665 711.863L220.774 707.991L224.143 707.245C222.302 705.776 215.169 704.237 211.848 703.063L210.688 701.185C208.899 698.287 210.983 694.826 212.889 692.043L221.127 689.897L219.409 686.72C218.36 685.021 214.142 684.845 211.667 683.742C209.182 682.682 206.966 680.665 204.776 678.904L204.351 675.25L201.071 673.507C204.278 669.748 199.527 673.064 204.95 669.716C208.452 667.553 224.546 670.687 228.73 670.958C236.987 671.505 243.019 672.5 253.207 668.459C256.493 670.877 268.821 669.183 274.369 668.698C284.469 667.811 284.922 670.966 294.586 668.829L297.439 667.067L300.266 665.322C306.298 666.712 320.149 664.337 328.752 660.693C331.404 657.425 332.27 655.531 335.546 652.607C330.651 646.585 325.342 651.42 320.306 643.868C316.398 644.255 318.436 644.923 315.74 642.795C307.883 647.647 304.311 649.123 300.061 645.99L296.334 649.515L291.525 651.014L291.559 655.032C286.06 655.747 289.923 654.016 283.587 657.459L283.189 653.789C280.127 653.035 277.519 653.954 276.127 651.7L274.387 648.882C272.836 646.369 270.641 647.353 267.822 647.748L266.082 644.93L258.955 649.331C256.503 643.333 262.023 646.646 258.589 639.179L263.564 634.65L262.53 632.854C257.193 634.618 262.253 634.705 256.517 632.675L257.14 627.151L255.91 625.279L254.17 622.462L251.483 621.588L250.436 615.749C244.695 618.824 244.69 618.815 242.106 615.629C237.358 616.288 238.865 616.975 235.513 614.511L226.428 618.885L228.167 621.642C225.272 621.946 225.235 623.217 223.6 620.569C221.679 617.457 225.218 616.865 224.107 615.067C222.997 613.27 220.889 616.178 218.961 613.056C217.305 610.373 218.347 611.063 220.048 608.493L216.67 606.774C213.559 610.115 216.283 609.051 212.049 608.244L214.902 606.482L210.843 599.908C205.368 601.719 207.77 599.68 201.424 600.535L200.264 598.656L199.69 597.726C197.586 594.318 199.451 596.614 197.083 596.741L197.512 593.956C192.415 591.964 196.285 591.304 190.203 591.921L194.571 595.698C185.816 600.276 194.33 596.427 185.683 597.307C184.606 592.931 186.213 595.534 182.783 592.611C184.36 590.143 185.499 590.687 183.87 588.048L182.71 586.17L183.123 579.578C189.229 577.093 185.94 578.271 190.677 579.954L192.758 576.334L196.618 573.692L197.898 570.047L196.545 567.251C199.931 564.233 203.747 557.194 207.252 552.856L206.092 550.978L203.773 547.221L197.789 553.473C195.026 553.87 192.832 554.854 191.28 552.34C189.7 549.782 192.289 544.96 194.906 542.331L191.427 536.696C190.306 534.88 189.921 535.315 188.24 534.772C197.932 529.714 187.635 535.183 196.527 532.249C190.424 527.357 173.781 527.812 174.155 521.428C179.406 520.706 177.246 522.139 182.995 519.862C179.494 517.279 180.284 518.83 175.822 517.805L170.142 521.312L166.982 512.897L169.036 509.295L172.89 506.643L172.47 502.998L171.403 501.088C170.281 499.272 169.924 499.691 168.256 499.139L168.232 495.349C175.361 491.404 190.698 494.462 195.916 496.318L194.746 498.114L189.749 498.643C193.455 501.679 198.721 501.133 205.075 498.446C200.286 496.498 196.561 494.276 191.597 492.499C190.753 488.621 188.038 485.615 193.217 482.417L197.464 479.795L202.361 475.203C203.767 470.431 205.021 466.593 211.87 461.832C212.444 459.464 212.01 457.854 215.81 455.508C220.665 452.51 224.455 452.9 227.216 454.952L231.89 452.659L236.948 448.659L214.38 447.595C207.697 450.93 208.866 448.405 201.757 448.631L206.004 446.009C209.603 445.516 211.008 445.279 214.843 444.443C210.158 438.638 209.767 442.03 204.886 441.869C204.429 441.854 197.229 439.542 195.978 439.24L186.836 443.402C178.575 441.67 174.45 446.849 169.158 440.245C164.545 440.882 163.715 441.382 160.579 439.056C155.167 441.212 151.123 440.472 147.146 439.567L143.615 443.922L139.231 445.504L140.374 447.628C146.556 444.268 145.716 445.812 151.46 443.377C154.053 445.458 153.901 444.094 155.227 446.24C155.536 446.741 154.441 449.567 154.113 450.82L150.751 451.487C153.182 453.457 155.28 453.496 158.427 454.63C152.611 456.948 156.016 454.809 150.208 457.11C155.903 459.165 150.851 459.06 156.194 457.306L157.353 459.184L153.107 461.806L157.804 462.637L157.272 465.646C162.674 466.833 166.762 465.074 170.566 467.877L176.246 464.37L178.547 471.968L174.04 473.503L175.2 475.381L178.053 473.62L179.793 476.437C173.58 477.296 166.807 477.672 161.794 475.875L162.196 473.107C157.738 473.723 159.865 472.903 155.201 474.757L152.882 471.001L139.457 477.696L135.642 475.209L131.522 477.703C128.933 476.201 122.882 476.416 122.363 475.575C121.143 473.598 122.128 474.015 121.491 470.925C127.418 470.329 124.603 472.153 132.6 471.008C137.197 470.345 140.374 470.347 144.302 469.812L146.042 472.629C148.541 469.567 149.349 468.426 151.402 465.428L148.03 463.718L147.858 459.809C146.135 459.378 137.944 458.184 135.943 459.419C133.319 461.039 135.426 462.333 132.829 463.936C132.099 464.387 128.871 464.515 127.436 464.672L128.803 460.109C124.537 460.52 121.244 460.119 118.79 457.051L121.643 455.289C124.211 456.755 126.866 456.82 130.195 456.494L129.025 451.967L125.91 450.159L129.877 446.388C126.265 443.503 123.296 442.507 118.077 443.221L118.479 440.453C114.416 440.861 116.427 441.547 113.758 439.402L119.098 438.885C115.664 436.076 116.448 437.618 112.018 436.585L114.167 433.862C120.1 435.969 114.625 436.903 121.704 433.212L119.043 432.322L121.267 429.479L117.993 427.806C113.124 429.602 109.144 429.872 105.399 429.01L108.22 427.256L105.06 425.315L102.206 427.077L100.467 424.259C104.385 423.768 102.429 423.233 105.06 425.315L111.332 422.888C114.612 425.174 119.196 424.703 123.88 424.06L125.619 426.878C130.357 424.99 140.526 425.457 145.859 424.746C152.366 423.879 157.064 428.008 163.858 425.308C163.144 421.066 162.455 422.702 167.798 418.983C166.867 413.603 170.608 413.974 168.593 410.709C168.565 410.665 159.53 407.225 158.274 406.703L156.534 403.886L155.954 402.947C153.938 399.682 157.897 399.77 155.881 396.506L155.301 395.566C154.18 393.751 154.715 393.618 154.968 391.88C149.834 392.58 144.816 391.502 140.403 390.496L148.589 384.725L147.175 382.435L145.435 379.618L139.758 376.625L139.284 373.014C135.356 372.067 137.475 371.475 131.962 373.68L130.792 369.152C129.405 369.205 114.012 366.813 113.338 365.721C112.217 363.906 112.751 363.773 113.005 362.036L106.972 359.435C111.219 355.12 109.031 359.683 109.786 353.646C106.546 352.483 104.5 350.954 101.48 349.693L101.353 345.917C102.697 343.556 103.882 344.084 102.247 341.436L101.087 339.558C99.9719 337.751 100.501 337.61 100.754 335.872L95.323 334.185L99.0698 330.179C95.524 329.428 80.7847 328.942 78.9567 325.981L77.2171 323.164C80.8874 322.664 84.4053 322.16 88.07 321.652L89.8096 324.469L94.6299 322.716L96.9825 326.526L101.229 323.904L95.5462 320.903L93.769 318.145L91.0817 317.272L89.4577 314.309C87.9168 311.813 83.0674 312.46 80.2985 312.181L82.6179 315.938L76.4423 316.131L77.0199 312.982L70.1306 312.171L66.0392 314.499C61.8251 313.543 57.8559 312.893 53.1683 311.624C47.2755 310.037 48.3008 307.946 39.4611 312.749L35.6294 312.261L31.1205 308.831L33.9955 307.043C31.074 304.671 27.0391 302.493 23.1022 302.107C23.1996 300.873 22.6969 285.567 22.6693 285.523C21.4433 283.537 21.4068 284.597 18.9433 282.635C14.4769 284.416 16.9687 284.126 13.5101 283.395L17.7836 280.756C13.4182 277.559 12.6414 280.929 7.46459 276.75C12.1289 274.895 10.0011 275.715 14.3043 275.121L16.4471 272.39C27.7102 269.636 20.2957 269.396 28.5771 272.795L34.257 269.288L28.42 268.728L23.1369 264.528L19.9618 265.043L18.1772 262.365C15.3046 262.644 15.2458 263.94 13.6112 261.292C12.4956 259.486 13.0247 259.344 13.2915 257.598C10.3103 256.128 11.4692 258.217 11.5519 254.781L8.8971 253.9L9.38723 251.003L4.97794 253.663L6.36643 249.075L10.9339 247.638C12.7403 245.3 12.3939 245.193 16.0182 242.955C18.9663 241.135 16.3909 244.739 24.2778 240.449L19.9099 236.673L15.1518 238.375C16.3152 234.148 14.1355 236.124 18.8123 234.744L17.6525 232.865C23.0088 229.954 24.1824 230.674 29.3456 229.537L33.5785 226.924L40.4243 225.365L44.6917 222.656L49.5282 221.202L44.7079 216.148L40.3914 218.838C37.5243 216.766 38.8575 217.685 35.2184 216.843C40.7363 214.647 38.6173 215.239 42.6379 216.154L44.7807 213.422L51.7303 211.911L54.5793 207.298C52.0631 206.702 50.9683 207.44 49.6649 205.329L49.0906 204.399L47.9308 202.52C48.5764 197.304 50.315 196.761 50.1315 193.378L53.5335 192.686C54.3799 185.949 50.712 185.817 58.0312 180.73C54.0106 179.815 56.1296 179.223 50.6116 181.419L46.2437 177.643L42.0323 180.231C37.6708 179.217 36.3309 179.044 29.7864 182.603C26.3465 180.057 23.0326 180.559 18.3077 176.718L22.5812 174.08C19.1771 172.772 21.6146 175.751 19.3945 172.156L18.2348 170.277L15.3354 165.582L15.764 162.797L13.8695 160.001L13.2872 155.246L9.12476 154.888L4.98845 151.153L2.32344 147.684C0.771586 145.171 2.66706 143.642 4.27744 141.289L10.5831 138.977C14.4645 141.905 22.1614 145.628 28.8366 142.976L25.4642 141.266C33.8807 137.774 27.4519 141.187 35.0964 140.408L36.836 143.226C46.0157 141.968 44.0709 143.75 50.5613 146.426L49.1998 150.998L54.3111 149.534L52.4745 142.688C57.6077 140.655 60.7495 143.323 63.9749 145.915L73.64 142.418L77.8955 139.902L81.2975 139.21L83.4391 136.355L88.4576 134.863L85.5024 130.016C89.4698 126.035 87.2813 130.598 88.0363 124.56L92.1989 121.409C96.8483 119.712 101.565 117.096 106.222 115.926C105.578 118.634 104.288 120.567 102.889 123.173L109.745 120.965L101.931 127.853L100.414 132.324C94.3231 136.739 97.5623 132.849 96.168 137.7L100.442 135.061L102.181 137.879L106.414 135.265L107.574 137.144L115.27 133.726C117.712 130.118 116.021 131.644 119.768 128.305L123.286 131.371L120.681 132.93L123.336 133.811C118.587 137.917 119.01 137.272 117.901 141.133L123.5 137.676C125.49 142.018 124.746 139.241 123.545 144.133L131.81 141.575L135.559 138.087L139.653 137.82C146.687 134.267 145.851 136.847 151.991 133.056L156.265 130.417L157.424 132.295C152.93 133.366 157.994 130.647 152.571 133.995L144.065 139.247C150.04 143.662 146.078 138.091 154.064 139.559L142.704 146.573L143.278 147.503L148.958 143.996L152.331 145.707C156.777 144.074 154.668 144.894 158.958 144.308L164.23 139.99C170.06 142.444 163.731 141.361 168.377 143.681L165.668 146.07C171.467 144.602 166.407 144.515 172.144 146.544L169.408 148.95L176.092 146.466L181.823 143.162L193.857 137.301L202.269 131.835L205.345 133.852C202.532 137.343 201.028 139.112 201.223 142.847L204.977 139.306L208.318 138.577L211.149 136.718L214.003 134.956C219.155 131.774 215.515 134.319 216.249 132.271L219.651 131.579L221.831 128.726L224.788 127.011L231.848 122.653L234.701 120.891L238.103 120.199L240.256 117.362L243.227 115.639L246.08 113.877L248.182 111.171L252.587 108.563C258.295 101.925 271.8 93.9077 268.654 86.9673C263.954 91.1541 267.414 89.0427 262.714 93.2294C261.973 88.9431 263 90.3348 264.047 85.92L262.313 83.1115L259.499 87.629L257.5 84.7859C245.751 92.2878 255.612 90.3499 245.628 97.2928C246.006 94.0327 246.568 93.3397 244.981 89.9217L238.753 92.6923L233.049 95.9793L229.647 96.6714L221.096 102.063L218.242 103.824L214.84 104.516L207.736 109.014L204.883 110.776C202.301 113.976 202.198 114.657 197.536 117.907C198.196 115.164 199.373 114.499 198.07 112.388L197.49 111.449C196.369 109.633 195.984 110.069 194.303 109.525L195.255 103.897L198.545 100.482L201.588 102.445L202.831 104.247L205.725 108.934L207.132 108.065L205.392 105.248C207.818 101.675 206.165 103.202 209.912 99.8626C208.885 95.234 208.519 96.8191 211.826 93.4924C209.23 88.9552 208.103 90.7008 213.2 86.158L218.776 91.7707L221.519 90.1019L221.51 93.8999L225.224 95.4983L220.738 98.3671L221.892 100.236L238.905 89.7321L237.751 87.8627L227.824 93.9917L226.665 92.1133L234.646 85.95L235.751 87.8003L240.025 85.1617C237.184 83.073 238.491 84.0085 234.851 83.1669L236.959 79.5309L240.819 76.8881C238.083 74.908 218.373 71.3016 216.493 72.4623C215.762 72.9132 214.203 75.7418 213.406 76.9626L217.391 79.6045L214.273 81.6037L212.533 78.7862C210.932 76.1923 190.787 70.0374 187.335 69.7104L187.343 65.9123C177.694 67.2867 175.321 62.9582 169.049 65.4467C165.256 62.3897 163.438 62.4997 157.89 63.2564L156.15 60.4389C149.884 62.9364 147.53 60.9682 141.311 61.818L139.572 59.0005C134.809 59.6677 136.331 60.3468 132.979 57.8825C128.646 61.4842 129.101 60.3756 126.459 63.2055C130.479 64.1204 128.387 64.6955 133.878 62.5159L136.981 64.5163L138.178 66.3344L140.498 70.091C141.873 72.3182 160.758 73.0741 164.824 74.5168L169.057 71.9032L172.435 73.6227C179.299 70.8544 177.423 70.9011 180.202 74.1019L174.876 74.6111L173.943 76.6698L181.937 76.9104C176.317 79.8491 178.116 80.0105 173.943 76.6698C169.201 78.671 167.587 78.5679 163.697 79.1045C158.438 72.5543 146.323 77.3167 139.658 71.9069L136.831 73.6521L138.571 76.4696C131.945 77.3856 134.276 75.5636 128.572 76.1575C131.924 78.8937 132.521 77.351 135.457 80.9865L139.731 78.3479C143.332 81.0042 157.251 82.4297 162.61 83.6671L166.856 81.0452L166.455 83.8134L171.256 84.7527C173.634 81.283 171.962 82.8098 175.682 79.4872C176.97 82.5713 176.508 82.2762 175.175 84.989L179.449 82.3504L176.447 86.8972L170.043 89.1711L171.235 91.3135L174.088 89.5517L178.429 93.3451L175.006 94.0628L178.493 97.2594L178.218 99.9L174.74 103.344C172.073 101.384 174.248 101.82 170.208 102.326C167.679 99.1676 162.153 96.9338 157.068 100.073C155.12 101.276 154.896 104.12 154.534 105.529C150.296 106.774 153.328 104.816 150.301 108.143L146.899 108.835L141.201 112.464C143.084 108.979 142.33 109.543 147.141 106.202C142.152 105.292 147.081 104.139 140.302 107.831L139.142 105.953L141.968 104.208L137.398 100.618L133.394 103.028L129.59 102.523L127.094 99.1469C124.26 99.4268 115.382 97.4217 113.369 95.9466L123.029 92.8357L120.334 91.7078C125.946 89.3916 123.849 89.9578 127.875 90.8816L129.977 88.1753L132.934 86.4605L131.195 83.643L129.052 86.3744L122.902 83.7351C117.691 85.5813 112.354 83.7744 109.462 80.2104L101.298 80.3592C94.3967 84.1878 94.5054 84.1824 91.4689 79.6578C83.7997 82.1817 76.3029 74.7897 69.9964 73.4701L70.4195 70.6763C68.2715 69.8899 68.0027 70.2412 66.5172 67.8352L64.7775 65.0177L60.5311 67.6396L62.2707 70.4571C56.5968 71.0695 59.7709 72.5195 58.5448 67.5689L54.2713 70.2075L48.4613 69.6314L47.7226 74.4856L44.8518 70.8346L45.2479 68.0575L40.5228 64.4889C44.1778 60.8485 44.0166 61.0716 42.1533 56.9344L46.3862 54.3209L42.3271 47.7467L46.6006 45.1081C46.011 41.6423 46.2568 43.2202 47.113 39.6153C35.085 46.1523 43.3777 35.4109 31.7211 40.0385L36.2913 43.6285L33.1679 45.6188L37.8976 46.4418L37.785 50.4647C29.9962 53.5813 24.5388 49.9461 19.7678 46.1217L22.5942 44.3766L20.8546 41.5591L18.0282 43.3042L19.1879 45.1826C16.3816 45.5687 14.1468 46.5779 12.5949 44.0645L11.4352 42.1862C11.8741 38.7525 11.4024 36.2641 11.6495 32.9735C9.04403 32.7167 5.39343 32.4011 3.8968 29.9771C1.89761 26.7393 7.69962 23.4904 6.93759 19.0192L12.6175 15.5122C17.9282 17.3973 18.0842 18.3758 26.0502 15.0015C28.6028 16.897 29.4046 16.229 32.6026 16.1446L36.0696 12.472L45.4585 8.52809C44.6725 4.10877 45.0863 4.44623 50.155 0.130636L53.6731 3.1966L55.615 5.82742L56.7748 7.70574C63.9576 10.2633 66.3267 7.29326 69.9202 9.96683L74.1936 7.32822C81.0772 3.07803 82.0243 5.79184 90.1196 1.38648C89.0606 3.36223 88.2221 4.75712 87.6263 6.81751L81.9464 10.3245C80.148 16.4878 79.7481 11.756 79.9924 16.7198L84.9721 12.1997L86.2577 14.1609L83.4313 15.9061L91.2332 16.5618C94.4067 12.6257 89.6743 15.9429 95.0838 12.6029C96.9906 11.4256 97.8531 12.3385 99.097 12.7194L104.75 9.22906C103.224 14.5324 101.363 14.2112 97.143 19.1146L91.4631 22.6217L94.1234 23.5117L87.7653 26.0414C90.3306 26.6566 89.1997 27.9108 93.2027 25.4392C95.9345 23.7524 95.5494 23.5825 96.8963 21.8614L101.738 20.416L103.857 17.4645L108.235 14.873L112.508 12.2343C111.749 18.4476 113.251 15.2225 108.308 21.3139L109.467 23.1923L110.047 24.1314C112.168 27.5661 119.257 27.068 125.466 23.6915L123.382 27.2142C128.242 25.857 126.63 26.605 131.192 26.6421C126.531 30.6195 126.955 29.9748 125.832 33.8434L131.512 30.3363L132.671 32.2147L129.935 34.6206L125.561 36.3701C128.315 39.9823 126.487 39.9867 132.137 37.7332L133.297 39.6115L128.477 41.3646C132.546 44.5969 136.198 45.3073 142.196 44.4945L144.516 48.2511L151.361 46.6928L151.193 49.4157C154.15 49.6658 156.123 50.0783 159.342 49.6349L158.914 52.4198L167.961 50.3424L163.656 53.4449L166.732 55.462L167.97 57.255L169.13 59.1334L178.814 55.9706L180.535 58.577C186.994 55.9978 206.507 57.3786 211.956 58.61L213.121 60.4973L217.958 59.0429L219.687 61.632L220.847 63.5103C224.782 63.1068 222.744 62.4379 225.44 64.5659C229.814 62.8164 239.297 64.0158 241.986 66.0121L244.84 64.2502L243.1 61.4328C247.737 59.595 245.636 60.3978 249.94 59.804L251.099 61.6823L252.839 64.4998L255.666 62.7546L254.506 60.8763L262.208 57.4675C265.538 59.896 264.043 59.2002 268.779 58.5497C271.452 62.6069 273.796 65.8292 280.517 61.6792L281.092 62.6095L275.412 66.1165L275.81 69.7869C280.234 68.7231 275.148 71.468 280.558 68.1279L283.411 66.3661L286.238 64.6209L289.699 60.9394C291.478 64.4862 290.957 65.1541 290.552 68.431L279.5 72.8582L280.625 74.56L284.899 71.9213L282.795 74.7154L283.782 79.1585C277.396 81.8541 275.202 81.1452 270.672 80.7056L272.991 84.4623L272.595 87.2394L275.07 90.9746C276.185 92.7814 276.549 92.3716 278.216 92.9236C271.65 97.1136 268.45 99.3734 269.202 103.678L273.641 98.281C274.629 101.908 277.222 102.63 272.367 105.627C269.839 107.189 269.169 105.65 267.801 104.555L263.341 109.977L260.428 111.702L254.748 115.209L255.328 116.148L263.035 112.687C262.029 111.059 266.755 109.093 269.555 107.364C268.276 111.737 269.133 111.158 263.035 112.687L264.774 115.505L260.501 118.143L259.341 116.265C256.504 120.747 255.598 118.885 260.254 120.89L252.648 124.635L258.251 127.328C252.855 129.449 253.625 129.455 250.301 127.036L245.48 128.789L241.201 131.357L234.909 133.661L234.361 132.986L240.041 129.479C240.324 128.303 239.652 127.124 241.708 125.855C244.453 124.16 244.419 124.589 246.556 124.147L248.641 120.536L253.908 117.025L253.328 116.086L237.722 125.722L238.881 127.6L226.659 136.394C230.236 139.041 228.874 136.744 232.429 139.355C237.066 137.517 234.971 138.329 239.241 137.743L242.095 135.981L240.935 134.103L245.626 131.627L242.095 135.981L244.755 136.871L252.267 133.246L256.601 130.916L262.076 129.71L265.455 126.5L269.059 128.314L275.928 124.16C279.254 122.106 279.435 121.611 281.033 119.722L284.429 119.021L294.509 107.09L298.003 109.269L299.241 111.062L299.821 112.002L300.98 113.88C308.742 112.806 320.684 108.188 324.946 114.636L322.12 116.382C323.486 117.416 335.284 122.152 338.159 123.33L338.868 128.018C341.82 128.593 344.711 128.859 347.646 129.134C347.102 132.67 346.05 129.786 347.358 131.906C347.436 132.031 349.927 132.89 349.965 132.891L345.692 135.53L348.768 137.547L348.436 140.247C353.12 139.604 356.71 139.821 361.398 138.792C364.556 143.513 361.789 142.269 367.151 141.726L365.991 139.847C373.599 136.83 368.629 140.43 376.237 137.413C381.391 141.223 391.854 138.926 399.655 137.222L404.923 132.895C410.433 132.594 414.818 131.406 418.489 135.959C421.478 132.421 416.732 135.746 422.155 132.398L425.009 130.636C432.032 129.092 434.863 128.233 439.574 132.021L435.847 135.545L422.233 138.787L423.383 140.708L419.109 143.347L419.534 147.001C416.171 147.483 415.767 146.708 412.589 148.67L411.183 149.538L408.356 151.284C404.335 150.369 406.427 149.794 400.931 151.964C398.792 150.406 398.867 149.347 394.918 151.785C392.335 153.38 394.428 154.682 391.804 156.302C387.774 158.791 385.083 159.303 382.138 159.676L378.677 163.358L370.727 166.425C363.606 165.361 357.875 170.358 353.392 167.06L342.836 172.169L344.018 174.145L351.746 170.93C354.589 171.238 367.401 169.208 371.377 167.63L375.332 171.736C368.907 174.43 371.944 171.06 370.583 175.904C375.049 174.122 372.557 174.412 376.016 175.143C367.608 180.162 369.655 177.032 362.076 181.156L359.395 180.291L345.527 185.876C339.588 182.761 334.853 189.341 330.417 183.852C325.951 185.634 328.443 185.343 324.984 184.612L329.258 181.974C333.179 179.552 332.232 179.137 331.791 176.518C321.736 180.774 302.316 188.651 295.333 187.354C289.822 190.349 270.678 195.041 268.833 192.053C268.756 191.928 269.064 189.341 269.093 189.298L273.941 187.528L273.232 182.901C269.286 186.313 270.972 184.778 268.514 188.359L263.943 184.769L271.896 181.131C264.956 179.844 269.201 182.696 263.282 182.126C257.952 181.6 264.057 178.781 255.62 183.36L258.281 184.25C255.304 188.929 256.831 186.047 256.279 190.749L248.013 192.913C252.465 194.858 250.709 195.251 256.571 194.46L257.154 199.215L254.658 200.83C257.353 202.836 268.911 204.038 273.231 202.322L279.779 205.939L273.239 208.507C278.004 209.629 274.898 209.348 280.704 208.073L280.728 211.863L277.636 212.451L278.796 217.084L281.371 215.445L282.531 217.323L288.993 211.999L285.934 210.008L287.993 207.353L285.021 205.383L291.242 203.025L295.283 209.449L290.03 213.768L284.509 217.411L290.319 217.987L290.08 220.383L293.017 221.177C298.259 219.2 302.27 219.948 306.234 220.861L303.407 222.606C308.137 223.491 314.074 221.308 318.799 222.183C326.921 217.761 325.145 220.662 331.899 217.987L331.917 221.768L335.939 218.148L342.459 219.237L346.732 216.598L345.572 214.72C351.374 213.436 348.267 213.155 352.965 214.047L362.113 209.894L358.679 208.024L364.585 204.278L359.389 199.765L355.518 199.758C365.201 193.718 364.333 197.305 373.032 192.577C378.016 193.478 373.046 194.656 379.872 190.948L381.611 193.765L392.199 188.797L395.504 190.278C401.847 187.906 398.547 189.066 403.244 190.774C395.363 195.072 397.933 191.459 394.985 193.279C394.809 193.388 392.754 195.929 392.738 195.964C401.829 199.221 410.434 193.463 420.397 193.142C423.414 189.921 420.306 191.753 424.671 190.504L424.689 194.285L427.83 192.444L428.386 197.216C420.218 204.347 428.32 200.407 420.53 206.033C420.913 202.781 422.073 197.853 421.571 195.012C418.687 197.905 417.234 201.088 417.37 204.092C412.885 205.663 414.71 206.772 414.804 203.082L411.458 201.293L407.384 203.772C410.676 206.199 411.746 204.513 412.53 205.783C412.613 205.917 412.299 208.495 412.283 208.53L407.441 209.975L410.125 211.085L407.965 214.816L414.566 212.075L413.993 217.803C409.524 218.4 407.348 219.867 404.105 217.459L397.59 222.791L402.193 226.373L399.154 229.015L409.576 223.174L412.402 221.428C417.723 220.243 422.286 218.588 427.502 217.294L430.355 215.532L433.182 213.787L438.068 209.176L438.314 213.114C441.599 209.48 436.858 212.814 442.281 209.466L446.555 206.827L447.715 208.705L460.186 203.34L457.928 199.805C465.426 195.732 460.285 199.326 467.594 196.431C470.844 200.453 467.082 199.02 472.74 198.442L470.421 194.686C473.947 193.287 474.832 192.271 476.434 194.865L478.754 198.621L485.853 194.237L484.148 191.596L480.708 192.226C483.533 190.691 486.36 188.674 487.547 190.597C488.392 191.966 486.626 193.069 485.853 194.237C484.886 197.602 486.488 195.538 482.767 198.738C488.897 200.166 491.414 197.858 496.492 201.938L489.392 206.322C484.118 209.578 482.405 209.376 479.119 208.773C476.13 212.311 480.87 208.977 475.452 212.334L469.767 215.832L466.371 216.533L462.093 219.286L459.95 222.017L456.45 222.671L453.578 224.555L450.725 226.317L447.323 227.009L441.625 230.639L433.88 233.827L437.035 236.092L434.273 237.76C437.679 245.244 429.493 242.725 432.652 247.841C433.746 249.612 439.625 247.427 442.898 245.407C443.101 245.281 445.156 242.74 445.145 242.722L441.271 239.987C448.116 238.368 449.585 237.571 453.158 242.964C459.558 242.075 466.948 239.885 470.311 245.332L473.21 250.028C484.691 245.176 504.622 239.973 511.143 244.755C506.756 248.662 507.076 247.971 507.782 252.019L498.612 256.075L500.408 259.166C493.912 261.744 493.676 259.728 488.163 261.538L490.482 265.295L500.718 262.904L501.882 264.73L503.042 266.608C505.058 269.873 506.785 266.286 508.795 269.542L510.535 272.36L506.261 274.998L508.916 275.879L508.35 278.835L504.413 278.993L498.345 281.418L495.473 282.969L496.633 284.847L491.813 286.6L491.378 289.315C498.96 287.648 493.956 287.439 497.532 289.48L509.754 280.686C512.627 282.767 510.976 282.724 515.745 280.829L515.737 284.627C520.542 283.909 526.745 285.453 529.793 287.698L526.045 291.247L529.817 294.119ZM187.553 76.2962L190.38 74.551L186.548 74.063L187.553 76.2962ZM400.45 256.012L403.277 254.267L399.445 253.779L400.45 256.012ZM341.347 223.79L340.337 221.548L344.174 222.045L341.347 223.79L344.002 224.671C347.557 221.686 345.749 222.357 349.008 220.345C349.157 220.253 355.139 218.87 355.821 218.733C351.913 216.488 347.767 219.061 342.415 219.227L335.315 223.611L330.473 225.056L331.622 227.189C338.442 223.471 333.505 224.642 338.461 225.56L341.342 223.781L341.347 223.79ZM360.882 814.864L364.868 814.998L363.89 812.748L360.882 814.864ZM214.095 621.571L218.081 621.704L217.103 619.454L214.095 621.571ZM456.348 858.361L459.351 856.236L460.356 858.469L456.348 858.361ZM95.9695 423.268L97.5427 425.151L99.2095 421.527L95.9695 423.268ZM29.093 217.178L33.0792 217.311L32.101 215.062L29.093 217.178ZM643.02 422.855L644.713 419.215L641.473 420.956L643.02 422.855ZM215.699 52.6916L219.685 52.8248L218.707 50.5749L215.699 52.6916ZM211.884 611.002C208.425 610.271 210.931 609.972 206.451 611.762C212.471 613.011 206.694 612.156 211.884 611.002ZM70.4942 353.42L65.3212 351.425C68.5707 355.447 64.8227 354.006 70.4942 353.42ZM360.81 788.73C358.621 792.022 359.04 790.008 359.723 793.293L362.55 791.548L360.81 788.73C362.933 785.393 362.618 787.515 361.897 784.168C359.734 787.442 360.127 785.446 360.81 788.73ZM635.702 694.201L633.042 693.311L628.862 695.83L635.702 694.201C639.144 694.844 636.575 695.342 641.135 693.441C637.758 692.721 640.165 692.323 635.702 694.201ZM383.26 374.232C388.111 375.252 383.528 376.179 390.1 372.603L383.26 374.232ZM758.519 639.112C754.065 640.973 756.452 640.573 753.086 639.872C757.655 637.953 755.078 638.469 758.519 639.112L763.787 634.785L759.026 633.61C754.488 634.609 743.63 638.322 738.274 641.234L744.976 642.075C740.355 644.15 742.892 643.843 739.428 643.104L733.206 645.883L731.026 648.403L728.068 650.118L725.242 651.863L713.581 654.788L716.63 657.217C712.895 660.969 714.462 661.027 713.914 665.343C717.844 664.93 715.811 664.27 718.508 666.399L715.654 668.16L716.814 670.039L712.567 672.661L713.727 674.539C718.012 671.98 738.482 664.381 742.181 663.444L746.414 660.831L749.816 660.139L754.093 657.386L757.495 656.694L762.419 651.961L761.925 647.411L767.407 643.977L766.827 643.037L762.554 645.676L764.658 642.882L761.901 638.296L758.519 639.112ZM417.467 493.134L423.48 493.313C418.716 495.217 420.368 495.26 417.467 493.134L414.065 493.826L411.93 496.751L412.947 498.52C419.076 495.921 418.965 495.409 422.367 497.892C415.893 500.629 417.397 498.527 409.847 503.028C405.209 502.173 399.945 504.447 393.341 508.031C396.591 512.053 392.851 510.594 398.514 510.025L400.834 513.782L408.312 506.743L409.34 508.53L413.614 505.891L414.773 507.77C410.279 508.84 415.343 506.121 409.92 509.469L405.646 512.108L406.226 513.047L411.906 509.54C416.674 513.057 429.13 505.095 437.566 506.656C446.601 501.263 454.723 502.648 456.605 496.198C449.779 499.906 454.755 498.736 449.766 497.826L452.619 496.064C449.012 495.426 443.682 497.321 438.94 499.322L437.78 497.443L442.027 494.822C440.854 494.557 440.096 493.419 438.04 494.688C435.295 496.384 435.694 496.545 434.347 498.266L426.182 498.415C430.1 494.686 428.441 496.205 430.873 492.64L427.797 490.623C433.231 488.503 431.153 489.07 435.146 490.002L438.613 486.329C437.405 491.3 440.685 487.385 434.32 491.809L435.48 493.687C442.797 490.775 437.622 494.403 445.146 490.314L446.306 492.192L443.479 493.937C447.378 494.655 447.852 494.696 453.725 491.502C450.83 489.386 452.449 489.436 447.712 491.324L446.552 489.445L452.232 485.938C451.539 482.697 452.65 483.469 451.319 481.313C451.159 481.054 449.285 480.197 448.173 479.364L442.9 483.682L440.399 482.929L436.214 485.438C432.321 484.729 431.841 484.679 425.968 487.873C421.419 486.828 409.151 488.348 402.875 491.767C406.728 494.589 404.932 494.252 411.714 490.2L415.546 490.688L417.467 493.134ZM685.414 698.507C688.867 699.5 686.544 699.551 690.847 697.746C687.398 697.121 689.974 696.605 685.414 698.507ZM517.138 279.908C520.558 280.909 518.268 280.952 522.544 279.164C519.095 278.539 521.693 277.997 517.138 279.908ZM499.427 898.908C503.988 897.006 501.384 897.539 504.834 898.164C500.563 899.961 502.853 899.918 499.427 898.908ZM787.499 466.926C788.368 463.523 786.984 465.638 790.578 462.443C789.911 464.992 791.391 464.424 787.499 466.926ZM280.928 113.289C284.859 110.763 283.374 111.322 284.041 108.772C280.453 111.976 281.824 109.87 280.928 113.289ZM540.597 286.166L544.87 283.528L539.46 284.175L540.597 286.166ZM333.427 357.598L340.256 355.74C335.286 354.498 340.256 353.319 333.427 357.598ZM735.22 652.534C730.263 651.283 735.233 650.104 728.364 654.408L735.22 652.534ZM491.843 899.996C496.743 897.736 495.132 897.669 497.823 900.183L491.843 899.996ZM414.362 857.069L420.375 857.248C417.637 854.75 419.289 854.793 414.362 857.069ZM416.738 155.3L420.193 150.881L415.475 153.374L416.738 155.3ZM53.4744 138.438L56.9346 134.028L52.2164 136.522L53.4744 138.438ZM484.25 776.459L489.716 775.358L488.566 773.374L484.25 776.459ZM539.801 478.556L544.075 475.918L540.243 475.43L539.801 478.556ZM404.44 164.091L407.294 162.33L406.134 160.451L403.28 162.213L404.44 164.091ZM265.915 123.856L268.768 122.094L267.608 120.216L264.755 121.978L265.915 123.856ZM623.707 446.183L626.56 444.421L625.401 442.543L622.547 444.305L623.707 446.183ZM399.653 356.339L402.479 354.594L401.319 352.716L398.493 354.461L399.653 356.339ZM457.342 729.127L460.168 727.382L459.009 725.504L456.182 727.249L457.342 729.127ZM553.369 773.563L556.195 771.818L555.036 769.94L552.209 771.685L553.369 773.563ZM164.982 46.1529L167.835 44.391L166.675 42.5127L163.822 44.2745L164.982 46.1529ZM548.297 749.466L551.123 747.721L549.964 745.842L547.137 747.587L548.297 749.466ZM216.242 649.796L215.083 647.918L212.229 649.68L213.389 651.558L216.242 649.796ZM68.7747 322.076L67.6149 320.198L64.7615 321.959L65.9212 323.838L68.7747 322.076ZM746.665 651.768L740.789 651.418L740.37 654.037L746.665 651.768ZM147.442 401.927L152.278 400.411L149.191 398.165L147.442 401.927ZM439.937 856.56C442.743 858.472 440.387 858.135 444.53 857.615L442.791 854.798L439.937 856.56ZM19.8742 217.435L22.7006 215.689C19.9594 213.7 22.1477 214.128 18.1346 214.617L19.8742 217.435ZM570.648 293.543L574.895 290.921C571.453 290.278 574.044 289.754 569.489 291.664L570.648 293.543ZM43.9567 139.027L48.2302 136.388C44.7888 135.746 47.3519 135.238 42.797 137.149L43.9567 139.027ZM11.2667 244.789C8.57053 242.661 10.6086 243.33 6.67357 243.734L8.4132 246.551L11.2667 244.789ZM662.24 384.797C665.693 385.79 663.398 385.824 667.674 384.036L666.514 382.158L662.24 384.797ZM706.208 496.635L707.901 492.995L702.651 494.445L706.208 496.635ZM526.232 265.472L527.925 261.832L522.675 263.282L526.232 265.472ZM141.4 119.05C143.863 117.109 142.908 116.5 142.514 114.47L139.661 116.232L141.4 119.05ZM188.758 113.159C191.493 115.35 190.161 115.159 194.73 113.363C189.029 111.299 194.062 111.403 188.758 113.159ZM71.0633 135.25C74.941 132.757 74.03 132.492 73.5565 129.819C68.7963 135.723 70.8189 131.163 71.0633 135.25ZM185.553 82.4356L191.808 79.9203L188.737 78.1227L185.553 82.4356ZM640.391 304.938C643.159 307.121 641.8 306.947 646.404 305.117C643.51 303 645.156 303.034 640.391 304.938ZM763.244 376.878C763.434 375.612 763.004 374.432 764.911 373.255C767.007 371.96 767.725 373.123 768.924 373.371L763.244 376.878ZM417.462 769.305C420.427 771.02 418.561 771.295 424.855 768.632C420.861 767.7 422.934 767.125 417.462 769.305ZM586.117 702.777C589.103 704.466 587.256 704.742 593.537 702.087C589.511 701.163 591.63 700.572 586.117 702.777ZM419.913 820.952C423.888 821.673 423.103 821.762 428.753 819.386C424.791 818.657 425.584 818.55 419.913 820.952ZM136.52 114.292L139.347 112.547L137.607 109.729L134.781 111.475L136.52 114.292ZM93.3436 571.399L94.5033 573.277L90.2298 575.916L89.0701 574.037L93.3436 571.399ZM627.692 474.843C631.112 475.844 628.822 475.887 633.098 474.099L631.358 471.282L627.692 474.843ZM531.106 372.415C535.82 373.273 531.997 374.311 539.366 369.91C535.42 370.023 536.249 369.611 531.106 372.415ZM524.526 895.086C531.895 890.684 528.059 891.731 532.786 892.58C527.63 895.393 528.472 894.972 524.526 895.086ZM414.237 342.084L414.788 339.285L408.43 342.087C411.945 343.907 406.946 343.707 414.237 342.084ZM571.271 392.993C577.105 395.061 571.611 395.995 578.69 392.304C574.67 391.389 576.789 390.797 571.271 392.993ZM419.233 156.255C422.456 160.294 418.683 158.843 424.379 158.266L422.06 154.509L419.233 156.255ZM208.928 663.393L206.609 659.636L203.782 661.381C207.013 665.403 203.27 663.971 208.928 663.393ZM219.563 112.287L225.243 108.78C220.26 107.879 225.216 106.709 218.404 110.408L219.563 112.287ZM735.599 506.754L732.939 505.864C728.876 509.176 731.4 508.062 727.353 509.251L728.513 511.13L724.28 513.743L724.86 514.682C731.013 510.883 730.137 513.487 737.352 509.563L734.692 508.673L735.599 506.754C738.147 506.676 740.283 506.444 743.019 506.065L743.415 503.287L738.459 505.063L735.599 506.754ZM121.049 419.445C117.719 417.017 118.495 417.032 113.055 419.205C116.058 420.921 116.409 420.099 121.049 419.445ZM525.874 208.381L533.001 203.981L532.421 203.042L524.821 206.796L525.874 208.381ZM588.276 71.3263C593.947 68.9243 593.154 69.0311 597.116 69.76C591.27 72.9373 592.253 72.2311 588.276 71.3263ZM602.291 382.908C605.758 385.438 603.964 385.347 609.71 382.219C605.69 381.304 607.809 380.712 602.291 382.908ZM429.576 754.042C433.57 754.974 431.478 755.549 436.996 753.353C433.529 750.823 435.314 750.932 429.576 754.042ZM519.951 773.441C523.972 774.356 521.88 774.931 527.371 772.752C523.931 770.206 525.716 770.314 519.951 773.441ZM461.993 771.633C463.026 773.305 465.099 771.853 467.426 770.872C464.027 769.784 466.156 771.991 464.847 769.871C464.769 769.746 465.083 767.168 465.107 767.116C463.237 768.777 460.938 769.924 461.993 771.633ZM212.73 113.986L217.566 112.47C214.716 110.82 216.134 112.057 215.263 108.468L212.41 110.23L212.73 113.986ZM454.363 902.098C460.457 899.534 460.367 898.996 463.782 901.471C457.981 902.755 459.335 903.254 454.363 902.098ZM552.438 889.527C557.699 888.366 558.82 887.217 563.264 888.031C558.056 890.851 555.5 891.28 552.438 889.527ZM79.8623 133.709C84.2638 129.916 83.9029 130.3 83.2282 126.454C78.8763 130.327 79.1884 129.652 79.8623 133.709ZM515.076 492.513L519.349 489.875C514.366 488.973 519.336 487.795 512.51 491.503C509.068 490.861 511.658 490.336 507.103 492.247L515.076 492.513ZM453.628 761.231C458.079 762.239 458.366 762.309 464.454 759.736C460.03 758.712 459.749 758.65 453.628 761.231ZM135.959 488.034C140.527 483.966 139.709 485.607 137.913 481.639C133.059 485.97 134.271 483.999 135.959 488.034ZM534.645 228.91C542.369 226.414 533.751 229.82 541.485 227.281C537.339 223.923 539.111 224.101 533.486 227.031L534.645 228.91ZM566.261 379.161L565.139 373.442L560.833 376.088C564.704 379.393 561.638 379.57 566.261 379.161ZM103.991 414.72L113.95 415.057C111.244 411.008 110.292 410.978 103.991 414.72ZM444.345 158.836L452.107 152.5L451.719 151.751L446.039 155.258L442.234 154.753L444.345 158.836ZM112.842 117.237L117.115 114.599L115.955 112.721L110.981 117.25C113.967 121.904 111.219 120.661 116.581 120.117L112.842 117.237ZM439.052 155.952L441.586 150.496L432.081 154.857L439.052 155.952ZM541.06 366.27L546.74 362.763C544.184 362.314 545.282 361.068 541.306 363.523L539.9 364.391C537.168 366.078 537.189 365.658 535.047 366.091C538.631 368.115 533.619 367.923 541.06 366.27ZM423.098 857.877C428.021 859.013 428.84 860.731 435.111 858.243C430.188 857.107 429.37 855.388 423.098 857.877ZM713.959 516.026L723.141 512.05L721.947 509.995L712.861 514.369L713.959 516.026ZM737.757 399.101C733.809 401.539 733.894 400.498 731.744 398.922C737.618 395.728 738.091 395.769 741.99 396.487L737.757 399.101ZM815.003 635.356C819.254 632.621 818.279 631.888 816.957 628.961L813.204 632.502L808.401 634.071C811.644 634.12 812.445 633.452 815.003 635.356ZM287.897 61.0147C289.871 59.4623 290.033 58.1515 288.983 56.4521C287.862 54.6364 287.504 55.0551 285.824 54.5114L283.681 57.2428L287.897 61.0147ZM390.448 347.754C395.167 348.62 392.061 348.339 397.84 347.081C394.047 344.901 388.3 347.301 383.034 348.452C386.474 350.998 384.702 350.882 390.448 347.754ZM435.652 173.346C436.923 172.561 437.859 170.538 437.34 169.697C437.263 169.572 434.777 168.722 434.733 168.712C430.992 173.332 432.159 170.413 430.82 175.02C435.295 173.949 430.229 176.694 435.652 173.346ZM320.393 770.89C324.877 766.898 324.156 767.183 323.174 762.687C317.891 766.505 318.398 766.056 320.393 770.89ZM540.379 387.433L548.885 382.181C545.842 380.428 546.041 380.478 540.046 383.747L540.379 387.433ZM269.595 120.287L275.275 116.78C271.961 114.378 269.748 114.151 263.842 117.353C267.31 117.978 264.72 118.503 269.27 116.583L269.595 120.287ZM484.302 372.788C488.288 373.526 493.95 370.957 499.401 368.654C495.768 366.611 490.384 369.478 484.302 372.788ZM81.5688 441.24C77.9411 444.592 78.5424 442.54 81.3086 443.995C77.56 447.212 79.1812 445.148 78.1948 448.512L83.9201 445.199L90.175 442.684C86.3873 442.54 84.5126 443.376 81.5688 441.24ZM647.328 373.261C651.473 369.566 651.141 369.029 652.109 365.121L647.262 366.89L645.165 369.606L647.328 373.261ZM643.387 326.339L642.547 321.681C641.161 321.796 638.264 321.793 637.412 322.319C637.209 322.445 635.155 324.986 635.139 325.02C640.045 326.13 637.895 324.22 640.892 327.954L643.387 326.339ZM229.246 639.061L240.326 634.74L238.671 632.18L228.115 637.289L229.246 639.061ZM673.794 708.276C678.243 709.099 684.016 708.314 690.879 704.212C684.13 704.414 682.039 704.779 673.794 708.276ZM537.161 274.068L537.031 270.318L531.463 274.732C525.849 275.653 529.707 273.914 523.403 277.349C526.107 277.977 528.42 277.698 531.403 277.598C534.077 274.156 530.444 276.893 533.649 274.914C533.819 274.797 537.012 274.098 537.161 274.068ZM613.573 772.687C611.893 772.144 611.535 772.562 610.414 770.746L607.514 766.051C610.321 765.665 612.555 764.655 614.107 767.169L614.687 768.108C615.75 769.799 615.575 771.118 613.573 772.687ZM361.621 843.984C358.346 841.373 355.116 839.501 349.028 842.679C353.87 846.558 354.767 845.499 361.621 843.984ZM0.861315 234.35L3.1921 237.853L8.02811 236.337L7.70102 232.722L11.9745 230.083C10.5653 229.767 7.90879 228.702 5.96139 229.904C2.72921 231.9 4.52384 231.236 0.861315 234.35ZM516.34 380.235L520.614 377.597C515.865 376.501 515.507 375.709 508.341 379.986C512.687 383.455 511.785 385.111 518.92 381.237L516.34 380.235ZM769.896 529.719L768.349 524.189C764.436 527.531 765.82 525.417 764.924 528.836C758.948 532.65 757.942 532.987 758.157 536.906L762.39 534.292C767.543 531.111 763.902 533.655 764.664 531.591L769.896 529.719ZM100.608 430.781C98.3884 427.186 100.839 430.157 97.1185 428.699L91.5653 435.043L94.6642 436.885L100.946 434.625C101.189 432.721 101.724 432.588 100.608 430.781ZM192.015 471.485L191.926 467.71L187.837 467.925L190.85 465.817C187.405 463.262 189.177 463.379 183.458 466.49L185.33 471.882C187.932 472.375 188.11 473.056 192.015 471.485ZM129.442 401.303C138.753 396.234 140.746 399.13 149.382 395.478C145.222 394.55 134.125 395.002 127.703 398.486L129.442 401.303ZM207.301 51.1313C210.112 53.0524 207.751 52.7068 211.867 52.2037C209.069 48.7303 204.062 47.6706 199.548 48.135L199.95 45.3668C196.992 47.8973 195.7 48.2254 197.302 50.8193C199.085 53.7083 203.29 52.743 207.301 51.1313ZM297.717 197.569C296.732 191.889 299.456 195 298.471 189.32C294.128 193.027 288.754 195.789 290.864 199.206L292.604 202.023L297.717 197.569ZM538.537 279.654C543.292 281.364 543.766 282.344 551.39 278.205C549.164 274.872 547.262 272.97 542.231 276.077C539.486 277.772 539.876 277.951 538.537 279.654ZM643.68 411.823C645.951 410.359 647.606 408.682 646.766 407.323C645.54 405.337 645.504 406.398 643.027 404.443L637.347 407.95L631.537 407.374L630.938 410.548L635.929 409.072C640.558 412.243 639.016 408.414 643.68 411.823ZM329.352 782.222C324.146 782.928 320.158 782.005 317.033 778.154C310.852 779.005 311.254 778.596 306.459 776.911C299.825 782.564 299.846 784.775 299.153 790.49L301.462 794.019L295.24 796.798C292.242 801.17 294.504 799.872 289.879 804L294.79 812.679L301.732 820.019C308.457 819.325 305.566 821.963 312.305 821.261L314.045 824.079C320.038 823.257 339.495 826.513 340.617 825.82C343.795 823.858 343.256 823.165 345.142 820.321L348.544 819.629C351.153 816.412 351.228 815.747 355.891 812.498C357.453 806.134 356.734 804.787 357.41 798.501L353.84 796.864L353.138 792.158C347.663 793.969 344.999 790.895 340.529 788.738C337.548 787.329 331.363 783.846 329.352 782.222L336.664 777.608L333.221 775.904L333.804 770.405C327.418 772.495 333.567 770.354 326.412 771.078C326.205 774.554 326.516 773.546 329.246 775.789L329.352 782.222ZM427.606 166.639C429.486 165.478 436.864 159.428 435.793 157.692C435.71 157.558 433.265 156.684 433.221 156.674C429.308 160.016 428.677 161.505 426.46 164.752L417.274 168.843L418.507 170.96L424.729 168.181L427.606 166.639ZM558.55 299.481L563.601 295.016C560.928 293.046 562.552 293.106 557.809 294.984L558.969 296.862L554.723 299.484C553.739 303.489 555.191 301.876 550.782 305.809C553.812 306.36 558.337 306.518 562.188 305.252L559.868 301.496L558.55 299.481ZM322.845 851.31L318.008 852.764C318.704 856.856 318.779 855.192 316.412 859.013L317.274 863.373L320.975 863.892L318.638 859.986L324.804 857.599L324.92 861.357L330.308 856.832C328.628 856.288 328.278 856.69 327.162 854.883L325.924 853.09L322.845 851.31ZM171.547 571.085L166.726 572.776C165.853 576.293 165.159 576.35 167.346 580.164L173.026 576.657L171.849 574.629L178.126 572.211C178.393 570.465 178.909 570.332 177.793 568.525L175.474 564.768C169.759 569.853 173.359 567.062 171.547 571.085ZM351.666 857.025L357.131 855.923C354.287 853.677 355.898 853.744 351.381 855.384L348.052 853.956L338.882 858.012C339.281 852.849 338.952 852.014 331.736 855.938L333.476 858.756C335.514 862.056 339.379 859.15 344.241 860.127L347.702 856.445L349.567 859.284L351.666 857.025ZM433.908 345.505L433.41 340.735C428.723 341.887 433.782 339.159 428.359 342.507L426.952 343.375C424.207 345.07 424.605 345.232 423.258 346.953L422.099 345.075L418.637 348.756L409.275 352.684C414.417 352.783 414.057 351.473 418.738 352.338C426.579 348.066 424.423 351.411 433.908 345.505ZM663.361 691.38C665.733 687.84 664.245 689.241 667.882 685.995C664.764 682.125 666.055 683.762 660.709 683.937L658.566 686.669C653.735 685.772 657.572 684.725 650.203 689.127C653.632 692.05 652.02 689.438 653.102 693.823C657.197 692.196 659.252 692.287 663.361 691.38ZM416.422 907.388C417.72 909.49 418.815 908.752 421.595 909.383C415.149 912.647 414.934 912.026 409.902 912.711L408.163 909.894C403.666 910.508 400.722 910.942 397.583 908.643L405.848 906.085L409.305 902.456L414.742 904.485L415.823 906.448L416.409 907.397L416.422 907.388ZM584.508 471.671L583.392 465.96C577.678 469.019 577.64 469.018 575.094 465.833L567.488 469.578C566.541 472.794 565.848 472.852 568.04 476.674L573.72 473.167C577.436 475.889 577.894 475.631 584.508 471.671ZM680.442 721.948L693.023 717.244C689.629 715.831 692.048 718.81 689.833 715.224C689.756 715.099 690.091 712.495 690.12 712.452L676.254 718.765L672.727 722.129L672.477 718.244L663.656 723.591C664.251 727.066 664.013 725.471 663.149 729.093L667.969 727.34L670.823 725.64L675.069 723.018C679.124 720.539 677.846 721.736 680.442 721.948ZM145.817 504C151.023 500.785 147.377 499.145 152.583 495.93L159.683 491.547C155.316 490.735 137.447 494.862 131.54 497.335L134.417 499.302L136.983 505.575L141.256 502.937C142.618 504.023 143.288 505.562 145.817 504ZM605.528 765.98C607.854 764.544 606.382 748.515 604.762 745.71L597.662 750.094C598.312 752.991 599.385 755.516 594.881 758.297C591.528 760.367 593.976 756.83 587.489 758.97L592.065 762.569L597.135 762.279L598.361 763.932L598.946 764.88L600.106 766.758C601.793 766.495 604.676 766.506 605.528 765.98ZM397.235 806.428C404.116 803.687 408.409 805.83 415.179 804.874C423.97 803.622 424.31 803.326 433.14 801.11C428.356 797.566 400.331 797.376 390.355 801.608C394.203 807.448 392.489 802.947 397.235 806.428ZM382.595 760.664L389.143 755.386C387.365 753.111 387.045 751.776 382.772 754.415L379.918 756.177C373.616 760.068 380.936 759.217 370.325 765.992L369.165 764.113C365.329 767.52 366.03 766.024 366.631 769.569L362.877 773.11L364.119 775C365.24 776.816 365.598 776.397 367.279 776.941L366.25 789.04L371.773 784.37L370.159 781.636C373.342 776.99 371.576 776.882 376.346 772.627L373.446 767.931L377.2 764.39L379.972 762.617L382.595 760.664ZM333.707 913.07C327.901 911.775 321.46 911.811 314.394 913.345L313.968 909.691C308.58 910.251 311.867 910.161 307.375 908.573C305.141 911.942 305.698 909.819 306.299 913.364L301.43 914.827C302.025 918.301 301.814 916.689 300.923 920.328C303.729 919.942 305.964 918.933 307.516 921.446L308.676 923.325C310.752 926.688 318.158 924.857 323.488 921.962C327.514 922.886 328.384 922.571 332.647 924.09L335.5 922.328L338.327 920.583C343.736 917.243 339.036 920.553 342.026 917.014C345.68 916.488 342.321 918.006 348.253 914.454L349.993 917.272C350.977 916.022 352.465 914.893 351.686 913.631C350.969 912.469 337.815 914.006 333.707 913.07ZM787.452 673.839L792.172 668.566C789.154 668.094 787.131 669.417 784.237 671.204C784.034 671.329 781.98 673.87 781.964 673.905L780.224 671.088L774.544 674.595C772.691 675.738 751.202 683.349 748.952 683.91L747.532 678.313C739.584 676.512 739.031 680.337 731.219 680.602C728.243 684.132 732.975 680.815 727.566 684.155L720.439 688.556L717.363 686.538L711.599 690.122L712.765 692.009L708.532 694.623L708.106 690.969C700.571 697.734 709.044 694.393 702.592 700.885C707.548 701.803 702.605 702.964 709.431 699.256L712.086 700.137C726.946 692.136 737.219 695.071 743.603 691.129L746.429 689.384L749.891 685.703L756.409 683.494L759.755 684.949C767.129 680.495 769.55 680.544 775.463 679.228L779.736 676.59L787.452 673.839ZM312.406 834.01L318.688 831.75C313.884 829.898 314.291 829.499 308.105 830.341L312.406 834.01ZM336.103 831.214C333.407 829.086 335.445 829.755 331.602 830.126L331.176 826.473C320.718 830.62 314.63 824.36 305.482 825.548L304.311 821.02C296.988 823.923 302.129 820.329 294.976 824.264L295.531 829.036C301.677 827.675 299.556 826.328 303.531 829.286L299.298 831.899C298.572 834.929 298.308 836.105 297.924 839.234L299.558 842.092L299.751 845.642L296.284 849.314C296.322 849.315 298.786 850.191 298.863 850.316C300.172 852.436 299.153 849.544 298.759 853.172L306.543 846.871C306.326 848.636 305.633 851.72 306.616 853.312C307.4 854.582 308.465 852.887 311.989 855.418L315.45 851.737L318.304 849.975L321.275 848.252L323.377 845.545L330.508 841.031L333.91 840.339L343.836 834.21C338.875 833.283 339.382 834.045 332.466 836.882C329.711 838.015 320.924 840.574 320.477 840.85L316.453 843.68L309.724 848.786C309.257 846.184 308.309 845.768 312.218 843.355L313.665 842.462L316.589 840.755L319.591 836.208C321.693 835.8 321.672 836.22 324.418 834.525L330.098 831.018C334.313 834.123 330.736 832.415 336.103 831.214ZM393.642 787.904C397.078 788.537 394.475 789.07 399.035 787.169C395.677 786.45 398.064 786.051 393.642 787.904ZM393.642 787.904L390.789 789.666C392.736 791.095 402.585 791.376 406.18 791.479C412.07 791.672 416.295 789.953 420.507 793.356C422.394 792.599 437.733 789.701 439.329 789.926C446.774 790.851 448.742 789.772 454.5 794.408C468.527 788.477 476.124 788.197 487.62 788.573C494.167 788.769 496.096 789.381 503.277 787.641C507.557 786.616 516.193 784.78 519.509 785.401L525.189 781.894C528.593 782.658 535.019 783.596 540.023 780.506C540.198 780.398 542.253 777.857 542.269 777.822L538.891 776.102L550.264 771.984C546.855 771 540.379 774.035 534.557 774.801C529.488 775.485 525.188 775.842 519.531 776.604C509.531 777.985 500.623 778.593 490.849 779.402C480.319 780.257 470.866 783.129 460.742 783.129C455.826 783.125 450.955 783.736 446.148 783.998C441.888 784.207 437.185 783.911 432.721 784.518L429.192 781.434L433.249 778.99C429.174 778.047 425.553 776.812 421.511 775.861C414.422 779.719 416.052 777.156 408.991 780.997L405.619 779.286C399.556 781.72 397.484 780.331 394.157 782.385L392.737 783.261C390.005 784.948 390.026 784.528 387.889 784.97L393.642 787.904ZM47.5516 94.0245L49.2913 96.8419L52.1177 95.0968C49.4872 93.0147 51.448 93.5583 47.5516 94.0245ZM76.3081 106.352L75.3298 104.102L72.3218 106.219L76.3081 106.352ZM83.2105 91.4529L82.0507 89.5746L79.1972 91.3364L83.2105 91.4529ZM83.2105 91.4529C86.5292 94.1354 85.8425 93.9912 90.3563 93.5268C87.5745 90.0803 87.8995 90.8185 83.2105 91.4529ZM47.5516 94.0245L44.6982 95.7863C48.7679 99.08 49.3857 97.0554 53.0308 99.7218L49.277 103.263L42.0616 103.678L43.6707 106.798C44.5323 108.194 49.3246 109.027 51.4235 109.795L49.3433 113.414L53.1292 115.129L57.1763 112.729L60.0028 110.983L64.6999 111.814L64.1538 114.832C70.3711 116.219 72.5316 113.638 79.9191 113.894C83.6467 114.002 90.5042 115.488 94.5342 113L98.8077 110.361C97.7859 105.741 97.4412 107.301 100.762 103.966L104.241 109.601C105.848 112.203 106.728 111.178 110.227 109.796L109.056 105.268C103.388 103.802 94.1736 101.313 90.1286 96.2741L96.4062 93.8559L93.2854 91.7059L92.0826 89.8788L90.9229 88.0005C89.3324 85.4245 81.1682 85.3013 77.7559 85.7651C73.8209 80.8439 70.4454 82.9404 66.3098 79.8727C55.3753 85.8211 63.2843 77.7257 52.0505 82.191L60.3211 86.1772C53.5842 89.8179 56.0134 87.7621 50.091 88.5773L46.6296 92.2588L47.5516 94.0245ZM634.131 313.919L637.652 310.274C633.477 309.381 632.156 309.208 625.611 312.767L624.452 310.888C629.822 307.152 629.133 308.789 628.392 304.564C623.814 306.377 621.491 305.761 616.146 306.936L611.873 309.575C604.277 311.25 594.981 314.89 588.774 313.459L583.094 316.966C580.565 316.502 581.704 315.23 577.701 317.702L573.428 320.34L570.026 321.032L567.154 322.916L564.328 324.662L560.932 325.363C557.911 329.032 562.651 325.697 557.228 329.045C551.9 332.335 549.122 330.801 545.822 329.602L542.969 331.364C540.237 333.05 540.622 333.22 539.316 334.916L521.921 341.444C527.907 342.85 531.047 338.194 538.202 339.496C547.64 334.36 552.409 337.729 562.967 331.988L566.794 332.467C566.637 333.515 565.519 336.12 565.861 336.675C566.17 337.175 569.193 337.471 570.454 337.73L574.714 335.1C578.758 335.84 583.948 335.23 589.307 336.468C586.317 340.006 591.036 336.697 585.613 340.045L582.787 341.79L571.646 345.68C571.355 345.995 558.047 345.589 557.701 345.604L557.276 341.951C552.879 342.998 557.979 340.244 552.534 343.618L549.708 345.364L546.306 346.056L540.602 349.676C535.848 350.87 532.905 352.699 527.503 353.873L524.676 355.618L517.549 360.018C523.189 361.045 518.921 360.061 524.969 359.329L527.112 356.597C533.375 355.275 531.241 353.937 535.255 356.869C545.257 352.646 564.627 351.496 575.115 345.218L577.775 346.108C583.868 342.544 585.116 340.995 585.106 345.547C590.913 344.272 587.801 343.982 592.526 344.858L586.271 347.645L584.123 350.157C579.896 351.025 577.814 350.951 573.733 352.57C576.567 354.649 575.253 353.731 578.906 354.564L588.026 350.428C593.907 351.331 593.496 348.607 599.398 349.695L608.484 345.32L603.781 344.542L613.017 339.927L615.337 343.745C621.466 341.147 621.747 341.208 626.163 342.249L629.917 338.708C633.298 339.314 630.73 339.813 635.29 337.911L631.891 336.217L634.97 334.217L631.139 333.729L631.399 331.307L627.233 328.703C631.761 327.204 628.698 329.17 631.757 325.836L627.054 324.996C634.252 320.922 632.616 323.477 639.683 319.644C636.983 317.63 639.13 318.083 635.117 318.572L634.131 313.919ZM123.994 430.599C129.25 431.789 129.238 431.376 135.427 430.026C132.302 427.718 129.363 428.161 124.848 428.775L123.994 430.599ZM183.862 511.617L185.022 513.495L193.241 511.015C193.55 510.516 193.628 508.404 192.949 507.304C191.839 505.506 184.072 505.694 180.969 506.93L183.862 511.617ZM197.582 514.808C196.549 513.136 194.509 514.581 192.149 515.569L194.463 519.316C196.745 517.87 198.427 516.177 197.582 514.808ZM174.071 473.583L172.911 471.705L170.057 473.467L174.071 473.583ZM223.593 550.612C220.882 547.22 222.683 547.232 217 549.494L217.701 554.2L224.58 552.362L229.631 547.897L229.273 547.105L223.593 550.612ZM149.147 433.217C151.958 435.138 149.597 434.792 153.74 434.273C151.018 432.284 153.187 432.711 149.147 433.217ZM277.448 631.451L276.288 629.573L273.174 634.09L277.448 631.451ZM285.578 642.109C284.881 643.219 282.497 646.013 283.292 647.301C284.507 649.268 288.689 647.601 292.132 645.734L285.578 642.109ZM267.381 624.707C268.193 626.022 270.488 625.383 272.814 623.947L275.741 622.486L283.393 618.996C278.684 615.332 280.239 619.152 275.614 615.745L271.34 618.383L272.5 620.262L267.658 621.707C267.097 625.488 266.072 622.587 267.381 624.707ZM284.981 621.599L277.276 627.876C281.82 628.64 278.011 629.671 285.084 625.365L284.981 621.599ZM215.248 511.684C217.958 515.076 216.158 515.064 221.841 512.802C219.103 509.427 220.931 509.423 215.248 511.684ZM290.853 630.957C288.233 634.762 285.979 636.042 286.653 640.037C293.93 637.15 291.78 640.565 301.178 634.973C295.982 630.793 295.219 634.155 290.853 630.957ZM229.341 503.168L227.115 499.168C222.778 497.621 221.493 496.265 215.135 498.795L216.874 501.612L214.138 504.018L207.227 508.223C213.154 509.987 217.869 508.275 224.359 507.381L224.118 503.452L229.341 503.168ZM120.04 309.868C123.476 310.502 120.913 311.01 125.473 309.108C128.919 311.663 127.147 311.546 132.893 308.419C128.64 307.461 126.121 306.558 120.04 309.868ZM231.68 442.88C234.652 444.789 236.598 444.341 240.842 442.622L240.758 438.856L231.68 442.88ZM250.562 441.908C254.332 438.666 252.561 439.488 256.242 438.401C252.893 434.217 247.554 435.13 243.422 439.843C246.399 440.883 247.534 441.208 250.562 441.908ZM100.062 125.128C98.8841 124.855 98.1311 123.726 96.0755 124.995C94.1281 126.198 93.904 129.041 93.5416 130.451L89.3087 133.065C90.7192 134.109 91.2782 135.74 93.8748 134.137C96.4714 132.534 96.1682 129.744 95.8288 127.742L100.062 125.128ZM341.315 499.977C335.567 502.254 337.727 500.822 332.476 501.544C335.401 505.161 336.347 505.182 342.475 501.856L341.315 499.977ZM467.33 729.422L471.574 726.826L478.118 725.293L478.002 721.535L474.082 718.878L469.521 720.384C469.559 716.815 471.055 716.818 464.954 719.251L466.694 722.068L462.532 722.316L453.614 726.327L453.188 722.612C445.58 725.839 437.202 726.429 428.507 730.105L429.667 731.983L432.52 730.221L432.091 733.006C434.664 733.209 436.514 733.574 438.826 734.111L444.506 730.604C447.4 732.721 445.749 732.678 450.519 730.783L448.429 734.297L467.33 729.422ZM349.962 507.598C353.382 508.6 351.092 508.642 355.368 506.855C351.913 506.22 354.517 505.688 349.962 507.598ZM92.0753 71.9573L90.7041 68.6776L87.778 70.5337L92.0753 71.9573ZM92.7639 75.2508L97.5999 73.735L95.8445 70.6801C92.2833 73.8673 93.6729 71.7615 92.7639 75.2508ZM87.1513 56.5403C84.4433 54.6049 86.6315 55.0328 82.5913 55.5383C79.3418 51.5158 83.1034 52.949 77.4183 53.5435L82.3153 58.0561L87.1513 56.5403ZM92.9506 65.9933L95.8041 64.2314L94.6444 62.3531L91.7909 64.115L92.9506 65.9933ZM101.603 73.623C104.403 75.5262 102.047 75.1895 106.169 74.6953C103.463 72.6723 105.616 73.1342 101.603 73.623ZM95.7312 57.7904L96.3111 58.7296C98.0728 61.5829 103.77 61.4624 108.324 59.0957C101.144 53.3365 102.12 60.06 96.5578 55.9829L99.4113 54.221C96.5989 52.1771 92.9892 52.1697 88.0055 54.7774C91.9991 55.709 89.9071 56.2842 95.398 54.1046C95.075 57.7261 93.5166 54.2037 95.7312 57.7904ZM95.572 38.4431L89.3225 41.2394L90.4314 42.9143L93.2849 41.1525L93.0246 43.9076C96.9159 41.4061 96.0129 41.1236 95.572 38.4431ZM522.765 736.704L525.619 734.942L524.459 733.064L521.606 734.826L522.765 736.704ZM387.868 502.342C383.847 501.427 385.966 500.836 380.448 503.032C386.269 505.108 380.788 506.034 387.868 502.342ZM530.838 734.561L529.86 732.311L526.852 734.428L530.838 734.561ZM530.765 736.954L532.338 738.836L534.005 735.213L530.765 736.954ZM127.59 74.4164C124.652 69.6579 126.922 70.9744 121.837 71.4824L126.143 75.3098L127.59 74.4164ZM133.102 86.5797C135.843 88.5688 133.649 88.1319 137.695 87.6354C135.078 85.5449 137.038 86.0885 133.102 86.5797ZM194.243 182.366L197.069 180.621L193.237 180.133L194.243 182.366ZM194.361 195.265C201.969 192.248 196.973 195.864 204.607 192.83C201.707 190.704 203.359 190.747 198.594 192.651C195.242 190.187 196.764 190.866 192.042 191.508L194.361 195.265ZM135.421 90.3364L136.586 92.1622L144.314 89.0086C140.429 85.9224 142.203 86.2848 135.421 90.3364ZM143.241 99.7647C145.976 101.955 144.623 101.79 149.227 99.9603C145.643 97.9361 150.66 98.1366 143.241 99.7647ZM118.323 59.4077C121.352 60.1075 122.486 60.4323 125.469 61.4816L131.149 57.9746C127.797 55.5103 129.318 56.1893 124.556 56.8565L122.236 53.0999C118.093 56.5233 120.617 55.4091 116.583 56.5902L118.323 59.4077ZM205.187 193.769C210.989 196.056 205.956 195.679 211.2 193.948C208.3 191.822 209.925 191.882 205.187 193.769ZM313.506 362.757L314.656 364.74L318.929 362.101L313.506 362.757ZM314.466 389.331L324.828 384.391C329.673 385.402 325.123 386.321 331.667 382.762C326.948 381.896 316.109 385.821 309.728 388.525L314.466 389.331ZM112.964 38.0823C117.22 35.3554 116.24 34.6143 114.923 31.6959L112.097 33.4411L112.964 38.0823ZM406.36 497.41L400.145 500.173L401.287 501.84L406.94 498.35L406.36 497.41ZM396.081 493.379L399.821 496.259C401.053 495.35 402.056 493.557 401.488 492.636C400.441 490.971 398.401 492.416 396.081 493.379ZM308.857 355.348C313.908 351.155 309.972 353.585 315.957 350.965C312.703 350.354 309.543 350.712 305.131 352.46L308.857 355.348ZM122.118 40.2013L123.691 42.0837L125.357 38.4602L122.118 40.2013ZM216.593 193.213C219.393 195.116 217.037 194.779 221.186 194.268C218.453 192.262 220.633 192.707 216.593 193.213ZM353.359 399.439L352.354 397.206L349.351 399.332L353.359 399.439ZM353.72 389.889L352.56 388.011L348.286 390.649C351.658 391.36 349.265 391.75 353.72 389.889ZM415.66 483.885L408.821 485.513C413.685 486.525 409.116 487.444 415.66 483.885ZM207.883 144.133L204.78 142.133L202.629 145.82L207.883 144.133ZM144.823 54.7082C150.715 54.7517 149.48 56.7746 154.822 55.0202L149.112 52.035L144.823 54.7082ZM358.613 394.638C362.066 395.632 359.771 395.666 364.047 393.878C360.597 393.253 363.174 392.737 358.613 394.638ZM242.664 191.632L241.692 189.391L238.678 191.498L242.664 191.632ZM562.758 709.416L561.598 707.538L559.932 711.162L562.758 709.416ZM368.019 394.02L370.873 392.258L367.041 391.77L368.019 394.02ZM568.004 709.019L567.026 706.769L564.018 708.886L568.004 709.019ZM567.858 704.97C571.284 705.981 569.01 705.989 573.291 704.21C569.823 703.584 572.419 703.069 567.858 704.97ZM207.883 144.133C206.662 147.481 205.643 146.949 202.203 147.64L196.523 151.147C200.393 151.031 206.8 150.065 209.928 150.653L213.417 146.955C220.561 145.546 222.324 146.83 229.282 143.88C229.832 140.353 230.851 143.245 229.543 141.125C228.477 139.399 224.795 140.757 222.123 141.814C218.385 139.057 216.874 141.028 210.717 142.371L207.877 144.124L207.883 144.133ZM587.243 733.19C588.6 734.872 589.509 736.98 592.416 735.184C594.391 733.965 594.453 732.16 593.503 730.622C592.708 729.334 589.142 730.214 587.49 730.443L587.913 727.649L584.364 725.986L578.12 731.089L579.23 732.948L582.084 731.186C585.32 735.217 581.585 733.767 587.243 733.19ZM228.623 127.535C225.248 130.508 226.632 128.394 225.781 132.007L232.036 129.492L228.623 127.535ZM311.411 321.366C318.11 317.724 335.758 313.907 341.455 313.119L342.006 310.321C335.96 312.843 313.772 317.203 306.539 318.741C298.417 320.47 279.151 321.728 273.766 323.867C278.326 327.229 283.953 327.782 290.892 326.252L287.816 324.235C293.891 322.276 289.774 325.349 297.992 321.869C297.709 326.948 296.473 325.277 301.764 324.741L300.604 322.862C305.846 321.701 306.967 320.552 311.411 321.366ZM593.143 720.479L595.97 718.734L592.138 718.246L593.143 720.479ZM599.549 721.959L598.544 719.726L595.536 721.843L599.549 721.959ZM213.697 96.4632L216.551 94.7013L212.713 94.2043L213.697 96.4632ZM455.711 491.573C460.829 487.005 458.062 486.304 458.752 480.615C454.185 484.683 455.007 483.051 456.798 487.01C454.702 490.331 455.017 488.209 455.711 491.573ZM200.9 69.3529C203.681 72.7994 203.348 72.0785 208.032 71.4351C205.157 67.0822 207.198 66.8476 200.9 69.3529ZM303.369 222.605C299.906 221.988 302.491 221.455 297.936 223.365C301.321 224.068 298.914 224.466 303.369 222.605ZM303.675 226.308C307.65 227.028 306.871 227.127 312.542 224.725C308.532 223.828 309.543 223.105 303.675 226.308ZM467.95 472.762L462.685 474.369L464.53 477.146L467.95 472.762ZM213.1 60.5229L210.246 62.2848L214.078 62.7728L213.1 60.5229ZM256.176 120.789L249.368 122.077L250.523 124.279L256.176 120.789ZM489.411 495.388C485.272 495.522 483.255 495.705 477.745 498.699C482.464 499.566 479.377 499.285 485.164 498.01L489.411 495.388ZM369.702 333.396C373.5 332.558 375.313 330.957 379.441 329.928C382.452 326.697 385.497 327.09 383.354 323.62C382.388 322.055 344.675 330.799 337.522 335.067C333.951 332.429 332.091 333.108 326.117 335.624L330.819 336.463C325.419 339.576 316.032 342.283 311.31 343.469C316.272 347.089 326.099 344.035 333.882 342.936C342.808 341.662 346.665 345.458 357.835 339.377C354.923 339.47 343.609 341.748 342.996 340.756C342.919 340.63 343.227 338.043 343.243 338.009C349.109 336.709 355.113 335.3 361.116 334.435C363.846 334.046 367.52 333.854 369.702 333.396ZM295.545 178.167L298.371 176.422L294.545 175.943L295.545 178.167ZM354.546 261.018C349.832 260.161 353.628 259.139 346.259 263.541C350.973 264.398 347.177 265.42 354.546 261.018ZM292.358 176.243C289.404 174.756 290.571 176.828 290.618 173.426L295.466 171.656L298.325 169.965C301.057 168.278 300.645 168.125 301.997 166.412L298.619 164.693L290.339 169.707L288.44 164.331C283.669 165.498 285.207 166.266 278.934 170.263L283.269 174.047L283.789 178.853C289.947 176.423 286.55 178.545 292.358 176.243ZM360.271 263.969C355.282 263.059 360.252 261.881 353.432 265.598C358.277 266.609 353.727 267.528 360.271 263.969ZM246.991 83.6773L245.831 81.7989L239.505 87.2858L239.899 88.0438L246.985 83.6683L246.991 83.6773ZM353.72 389.889C360.023 389.691 373.779 388.585 381.626 384.321C385.108 384.939 382.499 385.463 387.059 383.561C390.351 385.988 407.763 382.453 410.738 380.616L414.971 378.002C417.702 376.315 417.317 376.145 418.659 374.415L426.939 372.095L422.208 371.087L421.77 366.082L417.179 368.843L414.86 365.086C408.633 367.708 406.076 367.137 398.934 371.028C395.058 370.135 394.287 368.585 388.935 370.716C385.637 368.28 384.35 368.827 378.109 372.211L381.605 375.303L375.626 377.871C372.596 382.039 374.844 380.75 370.228 384.86L368.494 382.052L365.639 386.594C361.544 387.405 360.14 387.642 356.541 388.135L353.714 389.88L353.72 389.889ZM248.73 86.4947C252.151 87.4962 249.861 87.5388 254.123 85.7595L252.383 82.942L248.73 86.4947ZM500.73 481.925C497.995 479.945 500.183 480.373 496.137 480.869C496.456 486.801 498.605 478.543 495.05 485.432L500.73 481.925ZM305.924 160.096L304.764 158.218L301.938 159.963L303.678 162.781L305.924 160.096ZM305.924 160.096C309.819 160.99 310.183 161.519 315.344 159.469L308.615 158.645L305.924 160.096ZM265.711 69.5243L268.537 67.7792L264.705 67.2912L265.711 69.5243ZM521.123 464.158C516.403 463.291 519.496 463.581 513.703 464.847C517.17 467.376 515.358 467.285 521.123 464.158ZM384.152 223.293C387.046 227.646 384.986 227.88 391.325 225.35L386.601 224.536C388.861 220.966 388.54 223.079 387.851 219.724L378.185 222.826C381.034 225.23 379.415 225.18 384.152 223.293ZM397.585 222.782L393.753 222.294L394.731 224.544L397.585 222.782ZM394.105 217.147C397.993 218.058 398.324 218.594 403.525 216.52C400.165 214.073 400.065 213.912 394.105 217.147ZM394.813 202.441C397.548 204.631 396.222 204.45 400.786 202.645C395.09 200.59 400.15 200.677 394.813 202.441ZM428.186 250.834L424.865 247.361L422.877 244.747L418.275 241.164C415.182 242.357 408.68 244.321 405.478 245.125L401.204 247.764C399.502 248.184 393.418 249.977 391.538 251.137C388.536 252.991 389.895 252.621 386.438 255.584L380.132 257.896L380.181 254.344C372.304 257.651 369.538 256.197 361.933 260.337L363.125 264.839L365.694 263.191L366.092 266.861C371.618 266.13 376.441 266.438 383.085 262.83C379.141 261.917 375.111 261.169 369.68 263.324L370.076 260.547C379.949 258.355 383.655 261.786 393.02 256.684L395.339 260.44C398.262 260.032 405.638 259.27 409.019 257.183C409.749 256.732 411.309 253.903 412.092 252.691L417.316 254.617L422.181 250.637L428.186 250.834ZM606.058 512.835C603.12 508.076 605.39 509.393 600.305 509.901L604.651 513.703L606.058 512.835ZM536.045 412.149C541.306 413.348 541.261 412.943 547.121 411.573L547.948 409.766C543.924 408.754 542.589 408.59 536.045 412.149ZM569.324 427.898L561.324 427.648C563.894 430.843 563.9 430.852 569.324 427.898ZM706.401 653.143C700.074 651.972 697.915 655.677 691.589 654.506L687.315 657.144L682.618 656.314C673.335 661.699 675.493 658.267 668.235 661.154L665.132 659.154C662.142 660.815 634.973 667.941 630.056 669.174L627.908 671.896L622.124 675.356C626.665 675.208 647.594 670.774 653.743 668.36C660.774 665.588 680.943 659.077 685.068 659.829C690.915 656.651 691.421 656.685 695.314 657.394C701.469 654.051 700.651 655.569 706.401 653.143ZM706.401 653.143L710.232 653.631L709.254 651.381L706.401 653.143ZM580.336 445.733C584.242 446.644 583.853 447.466 588.308 445.999C583.598 444.3 586.892 443.131 580.336 445.733ZM589.208 450.633L592.061 448.871L590.901 446.993L588.048 448.754L589.208 450.633ZM733.986 672.408L732.826 670.53L730.746 674.149L733.986 672.408ZM495.459 282.916L494.299 281.037L497.153 279.275C492.434 278.409 495.54 278.69 489.733 279.965L495.459 282.916ZM597.381 426.387C594.299 423.633 592.149 425.084 587.569 425.713L584.081 429.411C588.124 430.09 585.4 431.154 588.729 427.591L593.401 426.263L597.381 426.387ZM696.72 529.462C702.965 524.087 701.624 528.782 701.213 524.094C693.4 526.657 702.214 523.142 694.401 525.706L696.72 529.462ZM762.91 557.309L759.078 556.821L760.056 559.071L762.91 557.309ZM795.992 617.272C797.7 617.86 800.286 619.809 802.585 618.39C803.856 617.605 804.771 615.607 804.252 614.766C802.896 612.601 799.165 615.362 795.992 617.272ZM762.91 557.309C766.346 557.942 763.755 558.467 768.302 556.573C764.945 555.855 767.337 555.464 762.91 557.309Z" fill="#286F6C"/>
</svg>
